<svg width="15" height="16" viewBox="0 0 15 16" fill="none" xmlns="http://www.w3.org/2000/svg">
<path d="M12.1875 13.625H2.8125C2.56397 13.6246 2.32573 13.5257 2.15 13.35C1.97426 13.1743 1.87537 12.936 1.875 12.6875V3.3125C1.87537 3.06397 1.97426 2.82573 2.15 2.65C2.32573 2.47426 2.56397 2.37537 2.8125 2.375H7.5V3.3125H2.8125V12.6875H12.1875V8H13.125V12.6875C13.1246 12.936 13.0257 13.1743 12.85 13.35C12.6743 13.5257 12.436 13.6246 12.1875 13.625Z" fill="#878D96"/>
<path d="M9.375 1.4375V2.375H12.4622L8.4375 6.39969L9.10031 7.0625L13.125 3.03781V6.125H14.0625V1.4375H9.375Z" fill="#878D96"/>
</svg>
