<svg width="107" height="42" viewBox="0 0 107 42" fill="none" xmlns="http://www.w3.org/2000/svg">
<path d="M6.41159 30.4431H14.3057V27.6785H6.41159V30.4431ZM6.41159 24.9064H14.3057V22.1418H6.41159V24.9064ZM47.2418 13.8405H55.9876C56.3745 12.9688 56.5756 12.026 56.5779 11.0722H47.2381L47.2418 13.8405ZM14.3057 11.0722H6.41159V13.8405H14.3057V11.0722ZM0.000709346 8.31133H20.7203V5.53552H0.000709346V8.31133ZM0.000709346 2.78212H20.7203V0.010054H0.000709346V2.78212ZM47.253 27.6785V30.4431H56.4322C56.4367 29.5045 56.2968 28.5708 56.0175 27.6748L47.253 27.6785ZM23.2831 35.9686H54.9266C55.4415 35.1121 55.8196 34.1806 56.0474 33.2077H23.2831V35.9686ZM42.4262 0.010054H23.2757V2.79707H52.1732C47.3165 -0.344864 43.9243 0.0175259 42.4262 0.010054ZM23.2794 41.5127H42.5308C45.9529 41.3969 49.8756 41.5986 52.4123 38.7444H23.2719L23.2794 41.5127ZM6.41159 19.3772H14.3057V16.6201H6.41159V19.3772ZM23.2869 8.31133H56.2155C55.9605 7.305 55.5042 6.36075 54.8743 5.53552H23.2869V8.31133ZM74.6898 0.010054H58.416V2.79707H75.7097L74.6898 0.010054ZM76.6437 5.53552H58.416V8.31133H77.6487L76.6437 5.53552ZM65.1594 13.8405H79.5914L78.6387 11.0722H65.1594V13.8405ZM52.1732 22.1456H29.6006V24.9102H54.7473C54.0435 23.8562 53.1744 22.9227 52.1732 22.1456ZM29.5894 11.0722V13.8405H38.537V11.0722H29.5894ZM29.5894 16.6126V19.3772H51.2318C52.3111 18.5333 53.3251 17.6091 54.2654 16.6126C53.9889 16.6201 41.3876 16.5902 29.6006 16.6201L29.5894 16.6126ZM-0.010498 35.9686H20.7091V33.2077H0.000709346L-0.010498 35.9686ZM29.6006 30.4431H38.5482V27.6785H29.6006V30.4431ZM0.000709346 41.509H20.7203V38.7406H0.000709346V41.509ZM76.4569 24.9102H88.326L89.2974 22.1456H75.4744L76.4569 24.9102ZM78.437 30.4468H86.346L87.336 27.6785H77.4357L78.437 30.4468ZM58.4197 41.5127H73.5728V38.7444H58.416L58.4197 41.5127ZM82.3859 41.5127L83.3871 38.7444H81.3884L82.3859 41.5127ZM80.4095 35.9686H84.3734L85.3559 33.2077H79.4457L80.4095 35.9686ZM65.1669 24.9102H73.5728V22.1456H65.1669V24.9102ZM58.4197 35.9686H73.5728V33.2077H58.416L58.4197 35.9686ZM65.1631 30.4431H73.569V27.6785H65.1631V30.4431ZM80.6001 16.6201H73.569L74.4769 19.3847H81.5752L80.6001 16.6201ZM65.1631 19.3847H73.569V16.6201H65.1631V19.3847ZM91.2401 35.976H106.389V33.2077H91.2401V35.976ZM89.1143 2.79707H106.389V0.0249896H90.0931L89.1143 2.79707ZM99.6497 11.0871H86.1218L85.1692 13.8555H99.6497V11.0871ZM87.1081 8.32627H106.389V5.55046H88.1131L87.1081 8.32627ZM84.1716 16.6201L83.1854 19.3847H90.3285L91.2401 16.6201H84.1716ZM99.646 19.3847V16.6201H91.2401V19.3847H99.646ZM91.2401 41.5202H106.389V38.7518H91.2401V41.5202ZM91.2401 30.4543H99.646V27.6785H91.2401V30.4543ZM99.646 22.153H91.2401V24.9176H99.646V22.153Z" fill="white"/>
</svg>
