<svg width="68" height="27" viewBox="0 0 68 27" fill="none" xmlns="http://www.w3.org/2000/svg">
<path d="M5.01298 19.5234H9.95535V17.7925H5.01298V19.5234ZM5.01298 16.057H9.95535V14.3261H5.01298V16.057ZM30.5762 9.12876H36.0519C36.2941 8.58295 36.42 7.99267 36.4215 7.39554H30.5739L30.5762 9.12876ZM9.95535 7.39554H5.01298V9.12876H9.95535V7.39554ZM0.999204 5.667H13.9715V3.92909H0.999204V5.667ZM0.999204 2.20523H13.9715V0.469673H0.999204V2.20523ZM30.5832 17.7925V19.5234H36.3302C36.333 18.9358 36.2455 18.3512 36.0706 17.7902L30.5832 17.7925ZM15.576 22.9828H35.3876C35.7099 22.4466 35.9467 21.8634 36.0893 21.2543H15.576V22.9828ZM27.5612 0.469673H15.5714V2.21459H33.6637C30.623 0.247463 28.4992 0.474351 27.5612 0.469673ZM15.5737 26.4539H27.6267C29.7693 26.3814 32.2252 26.5077 33.8134 24.7207H15.569L15.5737 26.4539ZM5.01298 12.5952H9.95535V10.869H5.01298V12.5952ZM15.5784 5.667H36.1946C36.0349 5.03695 35.7492 4.44576 35.3549 3.92909H15.5784V5.667ZM47.7611 0.469673H37.5723V2.21459H48.3996L47.7611 0.469673ZM48.9844 3.92909H37.5723V5.667H49.6136L48.9844 3.92909ZM41.7942 9.12876H50.8299L50.2334 7.39554H41.7942V9.12876ZM33.6637 14.3284H19.5313V16.0593H35.2753C34.8347 15.3994 34.2905 14.815 33.6637 14.3284ZM19.5243 7.39554V9.12876H25.1263V7.39554H19.5243ZM19.5243 10.8643V12.5952H33.0743C33.75 12.0668 34.3849 11.4882 34.9736 10.8643C34.8005 10.869 26.911 10.8503 19.5313 10.869L19.5243 10.8643ZM0.992188 22.9828H13.9644V21.2543H0.999204L0.992188 22.9828ZM19.5313 19.5234H25.1333V17.7925H19.5313V19.5234ZM0.999204 26.4516H13.9715V24.7184H0.999204V26.4516ZM48.8674 16.0593H56.2985L56.9067 14.3284H48.2523L48.8674 16.0593ZM50.1071 19.5257H55.0588L55.6787 17.7925H49.4803L50.1071 19.5257ZM37.5746 26.4539H47.0617V24.7207H37.5723L37.5746 26.4539ZM52.5795 26.4539L53.2063 24.7207H51.955L52.5795 26.4539ZM51.3421 22.9828H53.8238L54.439 21.2543H50.7387L51.3421 22.9828ZM41.7989 16.0593H47.0617V14.3284H41.7989V16.0593ZM37.5746 22.9828H47.0617V21.2543H37.5723L37.5746 22.9828ZM41.7966 19.5234H47.0594V17.7925H41.7966V19.5234ZM51.4614 10.869H47.0594L47.6278 12.5999H52.0719L51.4614 10.869ZM41.7966 12.5999H47.0594V10.869H41.7966V12.5999ZM58.123 22.9875H67.6077V21.2543H58.123V22.9875ZM56.7921 2.21459H67.6077V0.479024H57.4049L56.7921 2.21459ZM63.3881 7.40489H54.9185L54.3221 9.13811H63.3881V7.40489ZM55.536 5.67635H67.6077V3.93845H56.1652L55.536 5.67635ZM53.6975 10.869L53.08 12.5999H57.5523L58.123 10.869H53.6975ZM63.3858 12.5999V10.869H58.123V12.5999H63.3858ZM58.123 26.4586H67.6077V24.7254H58.123V26.4586ZM58.123 19.5304H63.3858V17.7925H58.123V19.5304ZM63.3858 14.3331H58.123V16.064H63.3858V14.3331Z" fill="#343A3F"/>
</svg>
