<svg width="420" height="384" viewBox="0 0 420 384" fill="none" xmlns="http://www.w3.org/2000/svg">
<g style="mix-blend-mode:multiply">
<path d="M333 306.242L240.762 359.497H203.869L111.625 306.242L203.869 252.988H240.762L333 306.242Z" fill="#F1F1F1"/>
</g>
<path d="M296.106 295.589L203.869 348.843L111.625 295.589L203.869 242.334L296.106 295.589Z" fill="white"/>
<path d="M296.106 295.589V306.242L203.869 359.497V348.843L296.106 295.589Z" fill="#AFB5BB"/>
<path d="M203.869 348.843V359.497L111.625 306.242V295.589L203.869 348.843Z" fill="#DFE3E7"/>
<path d="M28.6123 258.315L194.644 162.439V45.3036L28.6123 141.152V258.315Z" fill="url(#paint0_linear_59:30)"/>
<path d="M28.6126 258.321L24 255.658V127.815L28.6126 130.479V258.321Z" fill="#DFE3E7"/>
<path d="M28.6123 151.813L194.644 55.9305V34.6434L28.6123 130.492V151.813Z" fill="#C3CAD3"/>
<path d="M28.6126 130.505L24 127.842L190.031 32L194.644 34.6634L28.6126 130.505Z" fill="#EFF1F5"/>
<path d="M40.0206 131.547C41.2288 130.846 42.2101 131.64 42.2101 133.316C42.2101 134.991 41.2288 136.914 40.0206 137.608C38.8124 138.302 37.8379 137.514 37.8379 135.839C37.8379 134.163 38.8124 132.241 40.0206 131.547ZM44.8735 131.767C44.8735 133.442 45.8548 134.237 47.063 133.536C48.2712 132.835 49.2524 130.913 49.2524 129.244C49.2524 127.575 48.2712 126.774 47.063 127.475C45.8548 128.176 44.8735 130.085 44.8735 131.767ZM51.9091 127.688C51.9091 129.364 52.8904 130.158 54.0986 129.457C55.3068 128.757 56.288 126.834 56.288 125.165C56.288 123.496 55.3068 122.695 54.0986 123.396C52.8904 124.097 51.9091 126.013 51.9091 127.688Z" fill="#EFF1F5"/>
<path d="M211.964 284.281C211.964 283.153 211.443 279.408 208.98 278.273C206.31 277.065 206.157 279.649 206.043 280.496C205.863 281.891 202.826 284.889 199.068 283.667C197.605 283.078 196.09 282.631 194.542 282.332C192.94 282.098 190.917 282.746 191.204 285.449C191.518 288.346 195.95 290.122 199.642 292.171C203.487 294.327 207.959 297.091 210.001 297.979C211.377 298.579 214.267 296.644 214.494 295.462C214.721 294.281 214.681 291.797 214.127 290.549C213.252 288.56 211.964 286.357 211.964 284.281Z" fill="#8A8A8A"/>
<path d="M203.461 283.247C201.391 284.154 200.791 283.821 199.002 283.513C197.82 283.313 196.372 282.559 194.496 282.285C192.894 282.045 190.871 282.692 191.158 285.403C191.22 286.416 191.54 287.398 192.088 288.253C192.636 289.108 193.394 289.809 194.289 290.289C195.624 291.056 198.755 291.777 200.924 292.885C203.094 293.994 203.02 295.021 204.929 296.283C206.307 297.216 207.864 297.85 209.502 298.145C211.444 298.513 214.174 296.69 214.515 295.522C214.88 293.84 214.724 292.087 214.067 290.496C213.533 289.281 212.686 287.338 212.225 285.997C212.225 285.997 211.504 285.796 211.017 286.998C210.596 288.019 208.921 288.333 207.719 288.206C201.712 287.432 202.78 285.483 203.3 284.869C203.955 284.108 203.801 283.093 203.461 283.247Z" fill="#161616"/>
<path d="M190.958 297.371C190.958 296.243 190.444 292.498 187.974 291.363C185.304 290.155 185.151 292.739 185.044 293.58C184.857 294.981 182.374 298.372 176.8 299.38C175.625 299.587 171.253 299.881 169.457 300.488C166.847 301.376 167.782 305.582 171.874 306.563C175.285 307.384 176.032 306.81 180.625 307.644C184.957 308.432 186.532 308.872 188.735 309.193C190.664 309.473 192.961 309.193 193.608 307.858C194.142 306.79 193.888 304.714 193.435 303.425C192.42 300.495 190.958 299.227 190.958 297.371Z" fill="#8A8A8A"/>
<path d="M181.165 297.238C179.865 298.363 178.211 298.996 176.492 299.027C175.297 299.12 171.94 299.627 170.057 299.821C168.449 299.981 166.646 301.109 167.588 303.659C168.215 305.368 170.611 307.19 173.135 307.664C175.498 308.078 178.275 307.35 180.651 307.891C183.027 308.432 183.201 309.446 185.377 310.201C186.942 310.757 188.606 310.984 190.263 310.868C192.266 310.741 194.448 308.305 194.489 307.09C194.497 305.498 194.109 303.929 193.36 302.524C192.753 301.349 192.232 299.854 191.478 298.412C191.478 298.412 190.724 298.412 190.543 299.687C190.39 300.775 188.194 301.516 186.986 301.69C180.978 302.397 181.085 299.594 181.439 298.873C181.879 297.958 181.459 297.004 181.165 297.238Z" fill="#161616"/>
<path d="M224.634 163.848C223.752 155.404 222.11 140.552 218.759 130.592C217.772 127.655 215.469 126.634 213.319 125.626C210.602 124.351 208.146 125.866 208.52 128.162C209.107 131.714 214.848 155.224 216.376 160.497C216.912 162.434 218.152 164.101 219.854 165.17C223.265 167.466 224.8 165.463 224.634 163.848Z" fill="#8A8A8A"/>
<path d="M220.596 159.215C215.082 164.001 200.944 176.31 199.389 178.313C198.967 178.806 198.671 179.394 198.527 180.026C198.383 180.659 198.394 181.317 198.561 181.944C199.008 183.633 199.896 183.5 200.784 183.072C202.619 182.198 218.139 174.555 223.379 167.653C224.881 165.69 224.788 164.188 224.374 161.545C223.933 158.668 221.657 158.307 220.596 159.215Z" fill="#8A8A8A"/>
<path d="M201.004 182.478C199.035 184.414 194.723 186.65 192.82 187.284C191.793 187.501 190.738 187.546 189.696 187.418C189.322 187.258 188.194 186.603 187.56 186.33C186.757 186.095 185.939 185.918 185.11 185.802C184.928 185.756 184.767 185.65 184.651 185.501C184.536 185.352 184.474 185.17 184.474 184.981C184.474 184.793 184.536 184.611 184.651 184.462C184.767 184.313 184.928 184.207 185.11 184.16C186.325 183.974 187.506 183.609 188.615 183.079C189.282 182.745 191.445 181.223 191.445 181.223L189.029 182.111C186.706 182.966 186.265 181.003 186.265 181.003C186.265 181.003 192.333 178.533 192.9 178.406C194.275 178.106 198.093 178.119 199.482 177.385C200.116 177.058 201.064 176.718 201.651 177.986C202.346 179.481 201.585 181.904 201.004 182.478Z" fill="#8A8A8A"/>
<path d="M214.414 180.409C216.481 183.929 217.558 187.942 217.532 192.024C217.532 198.939 215.743 200.668 215.723 202.123C215.616 208.638 212.512 230.299 213.286 233.83C214.162 238.029 214.756 242.282 215.062 246.56C216.096 259.863 213.987 275.336 213.059 281.678C212.906 282.712 210.723 283.76 208.26 283.994C206.144 284.201 202.866 282.919 202.679 281.571C201.865 275.717 201.097 255.057 200.777 250.505C200.411 245.803 199.794 241.123 198.928 236.487C198.554 234.778 198.701 214.259 198.701 212.456C196.658 224.071 191.011 243.309 191.792 245.939C192.653 248.836 192.92 254.176 193.254 258.455C194.295 271.752 192.587 289.561 192.366 295.963C192.32 297.391 189.029 297.812 186.452 297.658C184.89 297.565 181.966 296.824 181.779 295.248C180.992 289.354 177.888 270.697 177.774 264.449C177.648 258.401 178.061 252.087 177.641 247.801C177.033 241.694 175.498 231.307 175.378 223.27C175.204 215.527 176.713 202.277 177.874 196.716C180.418 184.421 181.072 183.026 181.072 183.026C186.557 185.1 192.421 185.983 198.274 185.616C205.944 185.001 214.414 180.409 214.414 180.409Z" fill="#555555"/>
<path opacity="0.5" fill-rule="evenodd" clip-rule="evenodd" d="M201.237 206.048C204.575 203.885 203.24 195.655 203.907 195.655C204.835 195.655 204.488 198.125 205.703 200.101C206.691 201.709 207.879 201.796 209.548 201.796C211.791 201.796 202.999 208.591 202.999 214.339C202.999 221.802 205.75 236.934 206.19 238.803C208.406 248.322 206.537 259.443 206.717 268.882C206.891 277.986 210.876 283.407 210.876 283.407C210.031 283.716 209.149 283.914 208.253 283.994C207.482 284.054 206.706 283.986 205.957 283.794C204.348 283.367 202.792 282.459 202.672 281.571C201.858 275.717 201.09 255.057 200.77 250.505C200.583 247.835 199.201 238.523 198.921 236.487C198.253 231.454 198.781 215.947 198.694 212.456C198.701 212.41 199.315 207.276 201.237 206.048Z" fill="#424242"/>
<path d="M213.526 124.344C211.384 123.396 208.553 123.677 205.803 124.544C201.084 126.013 197.065 126.847 195.737 127.562C190.921 130.078 186.27 132.898 181.813 136.006C178.962 138.008 179.016 139.604 178.969 142.013C178.795 151.739 183.588 172.385 183.034 175.843C182.634 178.386 181.239 180.996 180.257 185.983C184.261 187.628 188.545 188.485 192.873 188.506C210.295 188.506 215.335 182.151 215.335 182.151C214.12 179.621 213.239 174.808 213.239 171.671C213.285 165.329 213.747 158.996 214.621 152.714C217.638 153.421 222.972 150.044 222.972 150.044C222.972 150.044 221.35 136.506 219.934 131.847C219.093 129.124 218.446 126.514 213.526 124.344Z" fill="#D2D2D2"/>
<path opacity="0.5" d="M201.852 187.852C198.882 188.313 195.88 188.536 192.874 188.519C188.545 188.498 184.261 187.642 180.258 185.996C181.239 181.01 182.634 178.4 183.035 175.856C183.242 174.575 182.721 171.284 182.073 167.005C180.632 157.426 187.647 143.989 187.647 143.989C187.647 143.989 189.65 164.575 192.553 171.504C194.356 175.843 201.852 187.852 201.852 187.852Z" fill="#BCBCBC"/>
<path d="M212.132 107.389C212.132 104.114 210.831 100.973 208.515 98.6572C206.199 96.3413 203.058 95.0403 199.783 95.0403C196.508 95.0403 193.367 96.3413 191.051 98.6572C188.735 100.973 187.434 104.114 187.434 107.389C187.434 107.963 187.067 118.69 187.067 118.69C187.034 119 187.066 119.313 187.163 119.609C187.259 119.905 187.416 120.177 187.625 120.408C187.833 120.639 188.088 120.824 188.372 120.95C188.657 121.076 188.965 121.141 189.276 121.14L205.156 121.214C207.82 118.383 212.252 113.657 212.132 107.389Z" fill="#8A8A8A"/>
<path d="M194.495 130.712C196.544 131.516 198.821 131.516 200.87 130.712C204.962 129.124 206.023 127.976 206.13 126.674C206.157 125.95 206.046 125.227 205.803 124.544C205.516 123.243 205.135 121.207 205.135 121.207L192.94 121.154C192.94 121.154 194.235 126.293 193.514 128.857C193.431 129.232 193.484 129.625 193.664 129.965C193.844 130.305 194.138 130.569 194.495 130.712Z" fill="#8A8A8A"/>
<path d="M177.614 182.819C181.619 180.749 184.61 167.119 186.078 158.868C187.847 148.956 187.233 144.77 186.018 142.047C184.376 138.362 182.353 136.566 180.11 138.042C178.775 138.903 177.087 140.832 176.366 146.052C174.904 156.639 171.479 172.265 172.414 179.014C172.648 180.689 174.537 184.414 177.614 182.819Z" fill="#8A8A8A"/>
<path d="M177.674 174.768C172.861 167.426 158.984 160.477 156.627 159.182C155.366 158.514 153.564 158.561 153.096 159.215C151.975 160.791 152.916 162.039 153.617 162.853C155.039 164.502 166.42 177.151 174.243 182.598C176.286 184.027 177.327 183.793 178.282 182.111C179.39 180.149 178.822 176.517 177.674 174.768Z" fill="#8A8A8A"/>
<path d="M153.617 162.853C151.227 161.478 146.221 157.867 145.106 156.178C144.665 155.511 144.892 153.608 144.932 153.314C144.979 152.914 145.313 151.659 145.406 150.971C145.5 150.284 143.831 146.773 143.831 146.499C143.807 146.324 143.848 146.145 143.947 145.998C144.046 145.851 144.195 145.745 144.367 145.702C144.539 145.658 144.721 145.679 144.878 145.761C145.035 145.843 145.157 145.98 145.219 146.145C145.219 146.145 147.509 149.61 148.837 151.118C149.338 151.699 151.374 153.354 151.374 153.354L150.079 151.172C148.63 149.169 150.206 148.308 150.206 148.308C150.206 148.308 154.211 153.488 154.471 154.002C155.139 155.244 155.579 158.04 156.647 159.182C157.141 159.703 157.695 161.852 157.008 163.02C156.233 164.295 154.324 163.26 153.617 162.853Z" fill="#8A8A8A"/>
<path d="M174.043 159.509C174.043 159.509 174.644 161.512 178.902 162.459C183.161 163.407 185.464 162.713 185.464 162.713C185.464 162.713 188.134 149.49 187.58 142.841C187.266 139.243 185.317 136.627 183.208 136.319C180.591 135.946 178.535 138.622 177.067 142.688C175.658 146.486 174.043 159.509 174.043 159.509Z" fill="#D2D2D2"/>
<path d="M212.719 107.389C212.138 100.133 207.252 96.8826 202.58 94.6064C198.728 92.7307 192.907 91.202 190.564 92.9042C187.567 95.067 187.14 99.6261 189.002 106.401C189.706 109.022 190.663 111.569 191.859 114.004C191.819 114.414 191.704 114.812 191.519 115.179C190.391 116.775 189.176 116.661 188.128 116.02C187.627 115.586 187.31 114.978 187.24 114.318C187.24 114.318 187.093 117.282 187.093 118.27C187.093 119.932 187.093 121.174 189.096 121.174H192.073C192.654 121.174 193.061 119.879 193.061 118.877V116.167C196.612 122.088 200.998 124.605 204.135 122.889C212.138 118.49 213.253 114.438 212.719 107.389Z" fill="black"/>
<g opacity="0.3" clip-path="url(#clip0_59:30)">
<path d="M391.188 55.9308C390.009 53.7209 388.143 51.9542 385.872 50.8967C383.601 49.8392 381.048 49.5483 378.598 50.0677C376.147 50.5872 373.932 51.8889 372.285 53.7767C370.639 55.6645 369.65 58.0363 369.469 60.5347C367.43 60.7541 365.553 61.7464 364.224 63.3075C362.895 64.8685 362.215 66.8795 362.323 68.9269C362.432 70.9742 363.321 72.9022 364.807 74.3141C366.294 75.726 368.265 76.5145 370.315 76.5174H389.312C391.903 76.5188 394.402 75.551 396.316 73.804C398.231 72.057 399.423 69.6572 399.658 67.0761C399.893 64.495 399.155 61.9193 397.588 59.8551C396.02 57.7908 393.738 56.3872 391.188 55.9202V55.9308ZM389.312 74.7467H370.315C368.705 74.7973 367.139 74.2212 365.946 73.1397C364.752 72.0583 364.026 70.5559 363.918 68.9491C363.811 67.3422 364.331 65.7564 365.37 64.5257C366.408 63.295 367.884 62.5156 369.486 62.3515C369.611 63.9224 370.057 65.4509 370.797 66.8421C370.851 66.9458 370.926 67.0374 371.017 67.1117C371.107 67.1859 371.212 67.2411 371.324 67.2741C371.439 67.3099 371.559 67.322 371.679 67.3096C371.794 67.2966 371.906 67.2617 372.008 67.2068C372.11 67.1508 372.202 67.0763 372.277 66.9873C372.352 66.8968 372.407 66.7919 372.44 66.6792C372.475 66.5647 372.488 66.4443 372.475 66.325C372.462 66.2086 372.428 66.0956 372.373 65.9921C371.204 63.7934 370.916 61.2319 371.569 58.8287C372.221 56.4255 373.765 54.3612 375.886 53.0559C378.006 51.7505 380.545 51.3022 382.984 51.802C385.424 52.3019 387.581 53.7124 389.018 55.7466C387.594 55.7845 386.194 56.115 384.904 56.7176C383.615 57.3202 382.463 58.182 381.52 59.2492C381.438 59.3358 381.374 59.4382 381.333 59.5502C381.29 59.663 381.271 59.7838 381.279 59.9043C381.284 60.0269 381.313 60.1474 381.364 60.2585C381.417 60.366 381.491 60.4622 381.58 60.5418C381.669 60.6202 381.773 60.6803 381.885 60.7189C381.999 60.756 382.12 60.7704 382.239 60.7614C382.363 60.7532 382.483 60.7194 382.593 60.6622C382.7 60.6073 382.794 60.5314 382.87 60.4391C383.821 59.3594 385.028 58.5353 386.379 58.0422C387.731 57.5491 389.185 57.4027 390.608 57.6164C392.031 57.8301 393.378 58.3971 394.525 59.2656C395.673 60.134 396.584 61.2762 397.176 62.5878C397.768 63.8993 398.022 65.3383 397.915 66.7733C397.807 68.2083 397.342 69.5934 396.561 70.8021C395.78 72.0108 394.709 73.0045 393.445 73.6923C392.181 74.3802 390.765 74.7402 389.326 74.7396L389.312 74.7467Z" fill="white"/>
<path d="M399.88 51.8971C399.82 51.7948 399.741 51.7056 399.646 51.635C399.553 51.5609 399.446 51.5078 399.331 51.4792C399.215 51.4475 399.095 51.4391 398.976 51.4544C398.859 51.4706 398.746 51.5091 398.644 51.5677L395.06 53.6395C394.953 53.6967 394.858 53.7736 394.78 53.8661C394.705 53.9612 394.649 54.0693 394.613 54.1849C394.582 54.3001 394.572 54.4203 394.585 54.539C394.598 54.6636 394.637 54.7841 394.698 54.8932C394.759 54.9987 394.841 55.0903 394.939 55.1623C395.035 55.2352 395.145 55.2882 395.261 55.3182C395.378 55.3403 395.499 55.3403 395.616 55.3182C395.741 55.3015 395.862 55.258 395.97 55.1907L399.554 53.1224C399.761 53.0021 399.912 52.8049 399.975 52.5735C400.035 52.3428 400.004 52.0978 399.887 51.89L399.88 51.8971Z" fill="white"/>
<path d="M388.929 49.0674C389.033 49.1245 389.145 49.1629 389.262 49.1808C389.381 49.1961 389.501 49.1877 389.616 49.156C389.731 49.1267 389.839 49.0736 389.932 49.0001C390.025 48.9294 390.104 48.8402 390.162 48.7381L392.234 45.1506C392.343 44.945 392.368 44.7051 392.304 44.4812C392.238 44.2571 392.089 44.0669 391.886 43.95C391.685 43.8329 391.446 43.7988 391.22 43.855C390.994 43.9112 390.798 44.0532 390.675 44.251L388.604 47.835C388.544 47.9375 388.505 48.0507 388.489 48.1682C388.474 48.2857 388.481 48.4052 388.512 48.5197C388.543 48.6342 388.595 48.7416 388.668 48.8356C388.74 48.9296 388.83 49.0084 388.933 49.0674H388.929Z" fill="white"/>
<path d="M381.003 46.9426C381.125 46.9428 381.245 46.92 381.357 46.8753C381.576 46.7796 381.75 46.6051 381.846 46.3866C381.891 46.2738 381.914 46.1537 381.913 46.0324V41.9031C381.899 41.6738 381.798 41.4586 381.63 41.3013C381.463 41.1441 381.242 41.0565 381.012 41.0565C380.782 41.0565 380.561 41.1441 380.394 41.3013C380.226 41.4586 380.125 41.6738 380.111 41.9031V46.043C380.111 46.1643 380.133 46.2845 380.178 46.3972C380.271 46.6176 380.446 46.7929 380.667 46.8859C380.779 46.9322 380.9 46.9551 381.021 46.9532L381.003 46.9426Z" fill="white"/>
<path d="M371.845 48.7558C371.968 48.9553 372.164 49.099 372.392 49.1565C372.619 49.214 372.86 49.1808 373.063 49.0639C373.266 48.9459 373.416 48.7544 373.481 48.5291C373.545 48.3022 373.517 48.0593 373.403 47.8527L371.335 44.2688C371.276 44.1651 371.197 44.0741 371.103 44.0012C371.009 43.9282 370.901 43.8747 370.786 43.8438C370.671 43.8124 370.55 43.804 370.432 43.819C370.314 43.8335 370.201 43.8721 370.099 43.9323C369.996 43.9925 369.906 44.0718 369.833 44.166C369.762 44.2616 369.709 44.3697 369.678 44.4848C369.649 44.6005 369.642 44.7206 369.656 44.8389C369.673 44.9566 369.712 45.0698 369.773 45.1718L371.845 48.7558Z" fill="white"/>
<path d="M366.944 53.6395L363.356 51.5677C363.254 51.508 363.141 51.4683 363.023 51.4508C362.905 51.4362 362.785 51.4434 362.669 51.4721C362.554 51.5037 362.446 51.5565 362.35 51.6279C362.256 51.7006 362.177 51.7908 362.117 51.8935C362.056 51.9955 362.018 52.1089 362.003 52.2264C361.988 52.345 361.997 52.4653 362.028 52.5806C362.06 52.6945 362.113 52.8015 362.184 52.8958C362.257 52.9909 362.349 53.0703 362.453 53.1295L366.037 55.1977C366.14 55.2612 366.254 55.3033 366.373 55.3217C366.49 55.3442 366.611 55.3442 366.728 55.3217C366.845 55.2931 366.955 55.24 367.05 55.1658C367.147 55.0945 367.229 55.0039 367.29 54.8998C367.351 54.7956 367.39 54.6801 367.404 54.5603C367.419 54.4415 367.409 54.321 367.376 54.2061C367.343 54.0912 367.288 53.984 367.213 53.8909C367.139 53.7958 367.046 53.7174 366.94 53.6607L366.944 53.6395Z" fill="white"/>
<path d="M384.687 119.171C384.581 117.399 383.802 115.735 382.511 114.518C381.219 113.301 379.511 112.624 377.737 112.624C375.962 112.624 374.254 113.301 372.962 114.518C371.671 115.735 370.892 117.399 370.786 119.171H369.016C369.117 116.929 370.079 114.812 371.701 113.261C373.323 111.71 375.481 110.845 377.726 110.845C379.97 110.845 382.128 111.71 383.751 113.261C385.373 114.812 386.335 116.929 386.436 119.171H384.687Z" fill="white"/>
<path d="M381.645 149.234C379.768 149.236 377.956 148.543 376.559 147.29L366.105 137.753C365.616 137.264 365.283 136.641 365.149 135.963C365.015 135.285 365.085 134.582 365.35 133.944C365.616 133.305 366.065 132.76 366.64 132.377C367.216 131.994 367.892 131.791 368.584 131.793C369.328 131.788 370.053 132.024 370.652 132.466L374.25 134.92V119.585C374.248 119.125 374.337 118.668 374.513 118.243C374.688 117.817 374.947 117.431 375.273 117.106C375.932 116.451 376.823 116.083 377.752 116.083C378.211 116.085 378.664 116.177 379.086 116.354C379.509 116.531 379.892 116.789 380.215 117.114C380.538 117.44 380.793 117.825 380.967 118.249C381.14 118.673 381.229 119.127 381.227 119.585V126.962L381.8 126.76C382.174 126.629 382.566 126.562 382.962 126.562C383.55 126.562 384.128 126.71 384.643 126.993C385.158 127.276 385.593 127.684 385.908 128.18L386.132 128.535L386.486 128.329C387.005 128.026 387.595 127.864 388.196 127.862C388.784 127.867 389.36 128.017 389.875 128.301C390.393 128.586 390.83 128.999 391.143 129.501L391.366 129.856L391.72 129.647C392.238 129.344 392.827 129.184 393.427 129.183C393.887 129.18 394.343 129.269 394.769 129.444C395.194 129.619 395.581 129.877 395.906 130.203C396.558 130.863 396.924 131.754 396.926 132.682V140.522C396.926 142.835 396.007 145.053 394.372 146.689C392.737 148.325 390.52 149.244 388.207 149.245L381.645 149.234ZM368.587 133.549C368.318 133.55 368.053 133.612 367.812 133.73C367.523 133.874 367.28 134.096 367.11 134.371C366.941 134.645 366.851 134.962 366.852 135.285C366.852 135.74 367.033 136.177 367.355 136.499L377.76 146.061C378.828 146.974 380.186 147.476 381.591 147.478H388.193C390.04 147.478 391.812 146.744 393.118 145.438C394.425 144.131 395.159 142.359 395.159 140.512V132.689C395.159 132.46 395.115 132.234 395.027 132.023C394.94 131.812 394.811 131.621 394.649 131.46C394.323 131.135 393.882 130.953 393.422 130.953C392.962 130.953 392.52 131.135 392.195 131.46C392.032 131.621 391.904 131.812 391.816 132.023C391.729 132.234 391.684 132.46 391.685 132.689V133.567H389.914V131.382C389.914 131.039 389.812 130.704 389.622 130.418C389.431 130.133 389.161 129.911 388.844 129.779C388.527 129.648 388.178 129.613 387.842 129.679C387.505 129.746 387.196 129.911 386.953 130.153C386.791 130.314 386.662 130.505 386.574 130.716C386.487 130.927 386.442 131.153 386.443 131.382V133.567H384.672V130.075C384.652 129.628 384.46 129.206 384.137 128.897C383.813 128.587 383.383 128.415 382.935 128.415C382.488 128.415 382.057 128.587 381.734 128.897C381.41 129.206 381.219 129.628 381.198 130.075V133.567H379.428V119.585C379.428 119.357 379.383 119.131 379.296 118.92C379.208 118.709 379.08 118.517 378.918 118.356C378.592 118.032 378.15 117.849 377.69 117.849C377.23 117.849 376.789 118.032 376.463 118.356C376.301 118.517 376.173 118.709 376.085 118.92C375.998 119.131 375.953 119.357 375.953 119.585V138.245L369.579 133.872C369.324 133.683 369.023 133.569 368.708 133.542C368.667 133.542 368.627 133.545 368.587 133.549Z" fill="white"/>
<path d="M386.227 222.465C385.648 222.464 385.093 222.234 384.683 221.824C384.273 221.414 384.043 220.859 384.042 220.28V205.023H385.813V220.708H391.897V208.944H394.514V200.685C394.512 200.225 394.329 199.785 394.004 199.46C393.844 199.297 393.652 199.168 393.441 199.081C393.23 198.993 393.004 198.948 392.775 198.95H369.235C369.007 198.949 368.78 198.994 368.569 199.081C368.358 199.169 368.167 199.297 368.006 199.46C367.682 199.785 367.5 200.226 367.5 200.685V208.958H370.113V220.723H376.201V205.037H377.972V220.294C377.971 220.873 377.74 221.429 377.331 221.838C376.921 222.248 376.366 222.478 375.787 222.479H370.542C369.963 222.478 369.407 222.248 368.998 221.838C368.588 221.429 368.358 220.873 368.357 220.294V210.732H367.928C367.641 210.733 367.357 210.677 367.092 210.567C366.826 210.457 366.586 210.295 366.384 210.091C365.976 209.681 365.745 209.126 365.743 208.547V200.685C365.745 199.759 366.114 198.872 366.768 198.218C367.422 197.563 368.31 197.195 369.235 197.193H392.761C393.687 197.195 394.575 197.564 395.229 198.219C395.884 198.874 396.252 199.762 396.253 200.689V208.529C396.251 209.108 396.021 209.663 395.612 210.073C395.41 210.278 395.17 210.44 394.905 210.55C394.639 210.66 394.355 210.716 394.068 210.714H393.639V220.276C393.641 220.563 393.585 220.848 393.475 221.113C393.364 221.378 393.203 221.619 392.998 221.82C392.589 222.23 392.033 222.461 391.454 222.461L386.227 222.465Z" fill="white"/>
<path d="M373.155 195.019C372.206 195.018 371.279 194.737 370.49 194.21C369.701 193.682 369.086 192.933 368.723 192.056C368.36 191.179 368.264 190.215 368.45 189.284C368.635 188.353 369.092 187.498 369.762 186.827C370.432 186.153 371.288 185.695 372.22 185.513C372.528 185.453 372.841 185.422 373.155 185.421C373.944 185.42 374.721 185.613 375.417 185.984C376.113 186.354 376.707 186.891 377.146 187.546C377.63 188.269 377.908 189.11 377.951 189.979C377.994 190.847 377.801 191.712 377.391 192.479C376.981 193.246 376.371 193.888 375.625 194.335C374.879 194.782 374.025 195.019 373.155 195.019ZM373.155 187.178C372.348 187.178 371.575 187.498 371.004 188.069C370.434 188.639 370.113 189.413 370.113 190.22C370.113 191.027 370.434 191.801 371.004 192.371C371.575 192.942 372.348 193.262 373.155 193.262C373.962 193.262 374.736 192.942 375.306 192.371C375.877 191.801 376.197 191.027 376.197 190.22C376.197 189.413 375.877 188.639 375.306 188.069C374.736 187.498 373.962 187.178 373.155 187.178Z" fill="white"/>
<path d="M388.84 195.019C388.131 195.019 387.43 194.862 386.788 194.559C386.146 194.256 385.58 193.814 385.13 193.266C384.68 192.717 384.357 192.076 384.184 191.387C384.012 190.699 383.995 189.981 384.134 189.285C384.319 188.354 384.776 187.499 385.448 186.827C386.119 186.156 386.974 185.699 387.905 185.513C388.213 185.453 388.526 185.422 388.84 185.421C389.469 185.416 390.093 185.536 390.675 185.775C391.707 186.196 392.562 186.962 393.09 187.944C393.619 188.926 393.79 190.061 393.573 191.154C393.356 192.248 392.765 193.232 391.901 193.937C391.037 194.642 389.955 195.025 388.84 195.019ZM388.84 187.178C388.09 187.184 387.367 187.467 386.813 187.974C386.259 188.48 385.911 189.173 385.837 189.921C385.763 190.668 385.968 191.416 386.413 192.021C386.858 192.626 387.51 193.046 388.245 193.198C388.441 193.236 388.641 193.255 388.84 193.255C389.24 193.255 389.636 193.177 390.006 193.025C390.561 192.793 391.035 192.403 391.369 191.902C391.703 191.402 391.881 190.814 391.882 190.213C391.88 189.407 391.559 188.634 390.99 188.063C390.709 187.779 390.374 187.554 390.005 187.401C389.636 187.248 389.24 187.169 388.84 187.171V187.178Z" fill="white"/>
</g>
<defs>
<linearGradient id="paint0_linear_59:30" x1="28.6123" y1="151.806" x2="194.644" y2="151.806" gradientUnits="userSpaceOnUse">
<stop stop-color="#0064FC"/>
<stop offset="0.04" stop-color="#1167FC"/>
<stop offset="0.15" stop-color="#3D70FC"/>
<stop offset="0.27" stop-color="#6378FC"/>
<stop offset="0.4" stop-color="#817EFC"/>
<stop offset="0.53" stop-color="#9983FC"/>
<stop offset="0.66" stop-color="#AA86FC"/>
<stop offset="0.81" stop-color="#B488FC"/>
<stop offset="1" stop-color="#B789FC"/>
</linearGradient>
<clipPath id="clip0_59:30">
<rect width="38" height="181.465" fill="white" transform="translate(362 41)"/>
</clipPath>
</defs>
</svg>
