<svg width="400" height="384" viewBox="0 0 400 384" fill="none" xmlns="http://www.w3.org/2000/svg">
<g style="mix-blend-mode:multiply">
<path d="M205.836 368.039C260.062 368.039 304.02 360.517 304.02 351.238C304.02 341.959 260.062 334.437 205.836 334.437C151.61 334.437 107.651 341.959 107.651 351.238C107.651 360.517 151.61 368.039 205.836 368.039Z" fill="#ECEDEE"/>
</g>
<path d="M217.29 121.934C216.972 121.737 226.67 114.826 231.886 105.007C231.886 105.007 321.444 200.095 296.263 332.42C296.263 332.42 275.482 361.321 204.778 361.474C134.074 361.626 113.051 338.421 113.051 338.421C113.051 338.421 83.5853 216.628 143.888 116.301L150.162 121.934C150.162 121.934 109.712 199.809 117.582 263.822C139.989 318.599 244.381 298.917 255.741 248.93C260.644 225.703 268.083 185.011 217.29 121.934Z" fill="#DFDFDF"/>
<path d="M150.158 121.934C150.095 121.773 159.569 129.073 169.831 131.574C169.831 131.574 146.42 188.842 154.343 220.37C154.343 220.37 158.341 241.881 187.708 244.095C187.708 244.095 126.76 247.308 124.192 275.38C121.438 271.958 119.237 268.126 117.667 264.024C116.878 264.042 107.951 198.971 150.158 121.934Z" fill="#DFDFDF"/>
<path d="M124.192 275.38C124.192 275.214 122.52 244.659 204.272 243.333C204.307 243.23 243.543 242.983 255.737 248.93C255.737 248.93 248.181 293.839 179.861 296.644C179.861 296.644 141.396 299.055 124.192 275.38Z" fill="#CAC9CB"/>
<path d="M118.612 286.512C118.612 287.269 164.126 331.497 246.079 284.482C243.35 280.834 242.637 279.18 239.101 275.859C239.101 275.859 186.422 314.369 135.131 285.414L118.612 286.512Z" fill="#F1F3F7"/>
<path d="M254.021 277.016L245.026 269.872C273.314 225.6 255.043 170.253 217.291 121.934L224.954 114.764C268.998 174.269 282.147 228.884 254.021 277.016Z" fill="#F1F3F7"/>
<path d="M110.842 275.348L125.46 277.033C108.668 235.885 118.577 180.682 150.96 122.543L143.888 116.301C119.213 154.129 100.033 225.299 110.842 275.348Z" fill="#F1F3F7"/>
<path d="M222.556 128.853L229.552 121.132L234.611 108.086C236.615 110.452 238.456 112.684 239.989 114.674L238.008 133.81L231.922 142.58L222.556 128.853Z" fill="url(#paint0_linear_59:29)"/>
<path d="M259.21 217.784L268.056 220.724C268.056 220.724 282.621 224.726 292.655 221.692C291.759 218.107 290.773 214.463 289.643 210.806C289.643 210.806 281.326 212.572 266.922 201.691L257.135 199.002C257.991 204.55 259.295 211.008 259.21 217.784Z" fill="url(#paint1_linear_59:29)"/>
<path d="M108.453 310.573L118.958 286.938L135.656 285.79C131.658 283.007 128.199 280.578 125.46 277.033L110.842 275.349L106.056 278.669C106.275 288.139 107.189 299.002 108.453 310.573Z" fill="url(#paint2_linear_59:29)"/>
<path d="M238.093 276.563C238.093 276.563 244.3 282.174 245.21 285.033C246.487 289.066 251.954 318.644 204.778 361.474C214.167 361.482 223.548 360.896 232.863 359.717C232.863 359.717 261.545 318.039 254.02 277.016C254.02 277.016 253.872 276.814 245.026 269.872C242.92 272.305 240.599 274.544 238.093 276.563Z" fill="url(#paint3_linear_59:29)"/>
<path d="M259.129 354.119C266.501 351.906 273.963 348.813 279.905 345.345C279.905 345.345 290.661 326.563 297.795 323.439C298.467 319.245 299.072 314.951 299.44 310.64C299.44 310.64 285.731 313.504 259.129 354.119Z" fill="url(#paint4_linear_59:29)"/>
<path d="M222.556 128.853L229.552 121.132C229.552 121.132 236.063 130.61 238.017 133.81L231.922 142.58L222.556 128.853Z" fill="url(#paint5_linear_59:29)"/>
<path d="M256.208 198.711L266.923 201.691C266.923 201.691 268.957 215.749 268.805 220.916L258.681 217.69C258.847 217.582 257.234 203.546 256.208 198.711Z" fill="url(#paint6_linear_59:29)"/>
<path d="M110.842 275.349C112.253 279.346 116.426 285.302 118.958 286.938L135.656 285.79C135.656 285.79 128.441 281.282 125.46 277.033L110.842 275.349Z" fill="url(#paint7_linear_59:29)"/>
<path d="M245.264 284.979C245.264 284.979 253.173 279.05 254.029 276.989L245.066 269.872C245.066 269.872 240.943 274.327 238.098 276.563C238.093 276.563 244.918 282.927 245.264 284.979Z" fill="url(#paint8_linear_59:29)"/>
<path d="M149.409 125.47L139.904 123.121C138.644 124.466 133.54 134.41 130.493 141.307L141.907 139.963C143.704 136.055 146.63 130.888 149.409 125.47Z" fill="url(#paint9_linear_59:29)"/>
<path d="M108.893 219.863L117.479 228.723C117.524 221.445 118.564 213.777 119.765 206.195L112.29 199.638C110.829 206.576 109.695 213.258 108.893 219.863Z" fill="url(#paint10_linear_59:29)"/>
<path d="M183.724 133.339C214.147 133.339 238.81 108.676 238.81 78.2529C238.81 47.8296 214.147 23.1666 183.724 23.1666C153.301 23.1666 128.638 47.8296 128.638 78.2529C128.638 108.676 153.301 133.339 183.724 133.339Z" fill="#F1F3F7"/>
<path d="M140.11 111.716C140.11 111.716 189.608 150.351 227.589 98.1104C234.934 86.0866 236.368 79.082 237.296 65.3732" stroke="#DFDFDF" stroke-width="0.470556" stroke-miterlimit="10"/>
<path d="M130.018 65.9468C130.018 65.9468 145.125 71.4276 158.941 94.3145C158.941 94.3145 173.035 76.1735 207.789 78.961C207.789 78.961 210.146 63.1414 219.387 59.4128C219.387 59.4128 184.114 28.2351 137.555 48.2091C137.183 48.0209 130.322 60.8289 130.018 65.9468Z" fill="#CBCBCB"/>
<path d="M180.058 26.6397L180.954 29.0776C180.989 29.172 181.047 29.2561 181.123 29.3223C181.198 29.3885 181.289 29.4346 181.387 29.4565C181.486 29.4783 181.588 29.4752 181.684 29.4474C181.781 29.4196 181.869 29.3679 181.94 29.2972L184.226 27.0162C184.307 26.9339 184.363 26.8299 184.387 26.7166C184.41 26.6034 184.401 26.4857 184.359 26.3778C184.317 26.2698 184.245 26.1762 184.152 26.1082C184.058 26.0402 183.947 26.0007 183.832 25.9944L180.659 25.842C180.56 25.8353 180.461 25.8534 180.371 25.8947C180.28 25.9359 180.202 25.999 180.142 26.0782C180.083 26.1574 180.044 26.2503 180.029 26.3483C180.014 26.4463 180.024 26.5465 180.058 26.6397Z" fill="#4D484E"/>
<path opacity="0.3" d="M146.896 331.757L147.984 323.959L152.977 324.656L152.821 325.773L149.09 325.252L148.788 327.42L152.173 327.892L152.017 329.009L148.632 328.537L148.314 330.816L152.046 331.336L151.89 332.454L146.896 331.757Z" fill="black"/>
<path opacity="0.3" d="M153.405 332.707L154.05 326.9L155.267 327.036L155.16 327.996L155.216 328.002C155.292 327.86 155.379 327.726 155.476 327.601C155.58 327.477 155.697 327.374 155.827 327.29C155.965 327.2 156.119 327.138 156.288 327.104C156.466 327.063 156.667 327.055 156.89 327.08C157.285 327.124 157.624 327.26 157.908 327.487C158.191 327.715 158.382 328.037 158.478 328.455L158.512 328.459C158.652 328.143 158.884 327.886 159.208 327.688C159.531 327.491 159.928 327.418 160.397 327.47C160.977 327.534 161.406 327.782 161.682 328.212C161.959 328.635 162.058 329.207 161.977 329.929L161.568 333.614L160.351 333.479L160.744 329.939C160.794 329.492 160.745 329.148 160.599 328.905C160.453 328.656 160.194 328.51 159.822 328.469C159.666 328.451 159.514 328.457 159.368 328.486C159.222 328.508 159.089 328.553 158.968 328.623C158.855 328.693 158.758 328.788 158.677 328.907C158.596 329.026 158.546 329.167 158.528 329.331L158.095 333.228L156.878 333.093L157.271 329.553C157.371 328.652 157.068 328.163 156.36 328.084C156.211 328.068 156.06 328.073 155.906 328.101C155.761 328.123 155.627 328.168 155.507 328.238C155.386 328.307 155.285 328.402 155.204 328.521C155.123 328.64 155.073 328.781 155.055 328.945L154.622 332.843L153.405 332.707Z" fill="black"/>
<path opacity="0.3" d="M163.276 333.71L163.745 327.845L164.975 327.943L164.897 328.913L164.953 328.918C165.026 328.772 165.109 328.635 165.202 328.506C165.303 328.378 165.418 328.27 165.546 328.182C165.682 328.087 165.835 328.019 166.005 327.98C166.183 327.934 166.384 327.92 166.61 327.938C167.008 327.97 167.354 328.096 167.647 328.316C167.939 328.536 168.141 328.855 168.251 329.272L168.285 329.275C168.417 328.953 168.642 328.687 168.962 328.478C169.281 328.269 169.678 328.183 170.152 328.221C170.738 328.268 171.177 328.504 171.469 328.928C171.761 329.345 171.878 329.918 171.819 330.648L171.522 334.37L170.292 334.272L170.578 330.696C170.614 330.245 170.555 329.899 170.4 329.66C170.246 329.413 169.98 329.274 169.604 329.244C169.446 329.232 169.294 329.242 169.148 329.276C169.002 329.302 168.869 329.352 168.75 329.426C168.638 329.5 168.543 329.598 168.465 329.721C168.387 329.843 168.342 329.987 168.328 330.153L168.013 334.089L166.784 333.991L167.07 330.415C167.143 329.505 166.822 329.022 166.108 328.965C165.957 328.953 165.805 328.963 165.651 328.996C165.505 329.022 165.372 329.072 165.253 329.146C165.134 329.22 165.035 329.318 164.957 329.44C164.879 329.563 164.834 329.706 164.82 329.872L164.505 333.809L163.276 333.71Z" fill="black"/>
<path opacity="0.3" d="M177.452 334.675C177.128 334.659 176.885 334.556 176.721 334.367C176.557 334.17 176.464 333.928 176.441 333.64L176.384 333.638C176.253 334 176.032 334.268 175.722 334.441C175.412 334.614 175.042 334.69 174.614 334.669C174.005 334.638 173.543 334.457 173.227 334.124C172.92 333.792 172.779 333.359 172.806 332.825C172.835 332.239 173.068 331.81 173.504 331.537C173.947 331.265 174.579 331.15 175.398 331.191L176.459 331.244L176.483 330.748C176.501 330.387 176.418 330.104 176.232 329.898C176.046 329.693 175.746 329.58 175.333 329.559C174.987 329.542 174.701 329.603 174.476 329.743C174.25 329.882 174.056 330.065 173.894 330.29L173.194 329.588C173.406 329.267 173.694 329.01 174.058 328.817C174.423 328.617 174.89 328.531 175.462 328.559C176.221 328.597 176.795 328.803 177.184 329.177C177.572 329.551 177.75 330.068 177.717 330.73L177.57 333.674L178.19 333.705L178.14 334.709L177.452 334.675ZM175.01 333.75C175.394 333.769 175.714 333.702 175.97 333.549C176.227 333.389 176.362 333.165 176.377 332.88L176.419 332.034L175.381 331.982C174.532 331.939 174.094 332.181 174.067 332.708L174.057 332.911C174.044 333.174 174.12 333.377 174.287 333.521C174.461 333.658 174.702 333.734 175.01 333.75Z" fill="black"/>
<path opacity="0.8" d="M150.807 262.24L157.682 264.929C157.798 264.975 157.921 265 158.045 265.005C158.171 265.005 158.341 265.005 158.538 265.005C158.811 264.997 159.073 264.895 159.278 264.715C159.484 264.536 159.621 264.291 159.666 264.021C159.711 263.752 159.661 263.475 159.525 263.239C159.389 263.002 159.174 262.82 158.919 262.724C156.441 261.783 152.591 260.358 152.484 260.331C151.233 259.977 149.893 260.035 150.086 261.357C150.117 261.555 150.2 261.742 150.327 261.897C150.453 262.052 150.619 262.171 150.807 262.24Z" fill="url(#paint11_linear_59:29)"/>
<path opacity="0.8" d="M177.114 254.384L178.355 257.324C178.453 257.557 178.604 257.764 178.796 257.928C178.989 258.093 179.217 258.209 179.462 258.27C179.57 258.296 179.682 258.314 179.798 258.332C181.434 258.547 182.187 257.49 181.47 256.006L180.04 253.044C179.919 252.796 179.737 252.584 179.51 252.427C179.283 252.27 179.02 252.174 178.745 252.148H178.705C178.431 252.133 178.158 252.187 177.911 252.306C177.664 252.425 177.451 252.604 177.293 252.827C177.134 253.051 177.034 253.31 177.003 253.583C176.972 253.855 177.01 254.131 177.114 254.384Z" fill="url(#paint12_linear_59:29)"/>
<path opacity="0.8" d="M203.429 255.773H203.689C204.155 255.774 204.617 255.68 205.045 255.497C205.474 255.315 205.862 255.047 206.185 254.711C207.552 253.291 209.802 250.862 209.959 250.18C210.035 249.84 209.717 249.643 209.273 249.535C208.708 249.407 208.12 249.426 207.566 249.591C207.011 249.756 206.508 250.061 206.104 250.476C204.558 252.022 202.358 254.129 202.129 255.245C202.479 255.581 202.944 255.77 203.429 255.773Z" fill="url(#paint13_linear_59:29)"/>
<path opacity="0.8" d="M221.91 258.677L222.067 258.763C222.156 258.811 222.254 258.84 222.355 258.846C222.455 258.852 222.556 258.836 222.65 258.798C224.026 258.243 229.874 255.872 233.54 253.923C234.105 253.622 233.907 252.946 233.37 252.632C233.221 252.52 233.035 252.468 232.85 252.489C231.205 252.551 221.928 257.14 221.619 257.75C221.535 257.912 221.519 258.1 221.574 258.274C221.628 258.447 221.749 258.593 221.91 258.677Z" fill="url(#paint14_linear_59:29)"/>
<path d="M232.133 264.459C232.026 264.484 231.929 264.542 231.855 264.625C231.782 264.707 231.736 264.81 231.723 264.92C231.711 265.029 231.732 265.14 231.784 265.237C231.837 265.334 231.918 265.413 232.016 265.462C232.055 265.478 232.096 265.489 232.137 265.494C232.559 265.565 236.843 264.808 238.322 264.571C238.506 264.536 238.679 264.456 238.824 264.338C238.97 264.219 239.084 264.067 239.155 263.894C239.236 263.629 239.155 263.405 238.806 263.186C238.237 262.823 233.84 264.01 232.133 264.459Z" fill="url(#paint15_linear_59:29)"/>
<path opacity="0.8" d="M157.382 269.666C155.352 270.88 153.717 272.656 152.676 274.779C150.807 278.593 150.713 284.298 163.221 287.457C183.231 292.517 222.291 281.797 224.568 269.648C226.8 257.75 187.206 250.535 157.382 269.666ZM215.341 264.261C215.333 264.312 215.308 264.357 215.269 264.39C215.23 264.423 215.181 264.441 215.13 264.441C213.086 264.441 205.378 264.575 204.106 264.441C203.075 264.329 200.847 263.499 199.938 263.145C199.897 263.13 199.861 263.103 199.836 263.067C199.811 263.031 199.797 262.988 199.797 262.944C199.797 262.9 199.811 262.857 199.836 262.821C199.861 262.785 199.897 262.757 199.938 262.742C202.093 262.016 212.114 261.321 212.777 261.277C212.801 261.272 212.825 261.272 212.849 261.277C215.457 261.994 215.417 263.701 215.341 264.261ZM182.115 268.465L203.33 265.507C203.364 265.498 203.4 265.498 203.433 265.507C204.101 265.758 211.303 268.483 211.303 269.092C211.303 269.702 203.881 274.022 198.271 277.034C192.844 279.933 173.053 281.676 171.785 281.784C171.746 281.795 171.704 281.795 171.664 281.784L165.014 278.181C164.985 278.166 164.96 278.144 164.941 278.117C164.922 278.091 164.909 278.06 164.904 278.028C164.899 277.996 164.901 277.963 164.911 277.932C164.921 277.901 164.937 277.873 164.96 277.849C167.357 275.272 181.371 268.815 182.052 268.501L182.115 268.465ZM163.503 277.047C162.096 276.657 161.791 275.183 161.733 274.712C161.726 274.67 161.732 274.626 161.751 274.587C161.771 274.548 161.802 274.517 161.841 274.497C163.732 273.493 169.643 271.974 172.009 271.387C172.057 271.377 172.106 271.384 172.15 271.406C172.193 271.428 172.228 271.464 172.248 271.508C172.268 271.552 172.273 271.602 172.261 271.649C172.25 271.696 172.222 271.738 172.184 271.768C169.984 273.283 164.4 276.599 163.669 277.025C163.643 277.04 163.614 277.05 163.584 277.054C163.554 277.058 163.523 277.055 163.494 277.047H163.503ZM190.975 265.955C190.926 265.956 190.878 265.94 190.84 265.91C190.801 265.88 190.774 265.838 190.763 265.791C190.751 265.743 190.756 265.694 190.777 265.649C190.797 265.605 190.832 265.569 190.876 265.548C192.221 264.952 194.461 263.979 195.322 263.885C196.182 263.791 198.674 264.432 199.965 264.781C200.01 264.796 200.05 264.825 200.077 264.865C200.104 264.904 200.117 264.952 200.114 265C200.111 265.048 200.092 265.094 200.06 265.129C200.028 265.165 199.985 265.189 199.938 265.198C197.773 265.556 193.108 265.839 190.966 265.955H190.975ZM209.102 265.099L214.834 265.471C214.876 265.473 214.916 265.486 214.95 265.51C214.984 265.534 215.01 265.568 215.024 265.607C215.039 265.645 215.042 265.688 215.033 265.728C215.024 265.769 215.003 265.806 214.973 265.834L213.181 267.627C213.148 267.66 213.105 267.681 213.059 267.687C213.013 267.694 212.966 267.685 212.925 267.663L208.99 265.485C208.956 265.459 208.93 265.424 208.916 265.383C208.902 265.343 208.901 265.299 208.912 265.257C208.923 265.216 208.946 265.179 208.978 265.151C209.011 265.122 209.051 265.105 209.093 265.099H209.102ZM208.152 260.703C206.037 260.77 197.303 262.576 196.796 262.679H196.751C192.911 262.545 183.952 262.639 181.371 262.679C181.325 262.68 181.279 262.665 181.242 262.638C181.204 262.61 181.177 262.572 181.163 262.527C181.15 262.483 181.151 262.435 181.166 262.392C181.182 262.348 181.211 262.311 181.25 262.285C188.174 258.05 210.254 260.636 208.143 260.703H208.152ZM192.342 264.208C187.65 266.224 164.108 272.637 161.258 273.413C161.225 273.422 161.19 273.423 161.157 273.416C161.123 273.41 161.091 273.395 161.065 273.373C161.038 273.352 161.017 273.324 161.003 273.293C160.989 273.261 160.983 273.227 160.985 273.193C161.76 262.155 187.506 263.459 192.274 263.782C192.329 263.777 192.384 263.794 192.427 263.828C192.47 263.863 192.499 263.912 192.506 263.967C192.514 264.022 192.5 264.077 192.468 264.122C192.435 264.167 192.387 264.197 192.333 264.208H192.342ZM157.834 272.92L158 275.16C158.003 275.205 157.992 275.248 157.968 275.286C157.945 275.324 157.911 275.353 157.87 275.371L155.441 276.429C155.403 276.445 155.361 276.451 155.32 276.444C155.279 276.438 155.24 276.419 155.209 276.391C155.179 276.363 155.156 276.327 155.146 276.286C155.135 276.246 155.137 276.204 155.15 276.164C155.598 274.968 156.853 273.475 157.462 272.776C157.492 272.752 157.528 272.736 157.567 272.73C157.605 272.725 157.644 272.729 157.68 272.744C157.715 272.759 157.747 272.783 157.77 272.814C157.793 272.845 157.808 272.881 157.812 272.92H157.834ZM158.17 281.842C156.705 282.057 155.329 280.296 155.065 279.942C155.037 279.901 155.023 279.852 155.024 279.803C155.087 277.813 157.834 276.455 158.489 276.164C158.528 276.145 158.573 276.139 158.617 276.148C158.66 276.156 158.7 276.177 158.731 276.209L161.124 278.745C161.147 278.769 161.164 278.798 161.175 278.829C161.185 278.861 161.187 278.894 161.182 278.927C161.177 278.96 161.164 278.991 161.145 279.018C161.125 279.045 161.099 279.067 161.07 279.082C160.106 279.557 158.605 281.394 158.309 281.77C158.289 281.793 158.264 281.812 158.236 281.824C158.209 281.836 158.178 281.843 158.148 281.842H158.17ZM160.698 283.187C166.636 282.425 173.215 283.751 175.523 284.289C175.569 284.301 175.61 284.328 175.639 284.366C175.668 284.403 175.684 284.45 175.684 284.497C175.684 284.545 175.668 284.592 175.639 284.629C175.61 284.667 175.569 284.694 175.523 284.706C161.307 288.036 160.505 284.32 160.514 283.406C160.516 283.361 160.531 283.317 160.558 283.281C160.586 283.245 160.623 283.218 160.667 283.205L160.698 283.187ZM197.805 284.11L184.02 283.505C183.97 283.504 183.923 283.487 183.885 283.455C183.848 283.423 183.823 283.379 183.814 283.331C183.806 283.282 183.815 283.232 183.839 283.19C183.863 283.147 183.902 283.114 183.948 283.097C188.519 281.304 211.67 274.555 214.512 273.731C214.544 273.721 214.579 273.719 214.613 273.725C214.647 273.731 214.679 273.745 214.706 273.766C214.733 273.787 214.755 273.815 214.77 273.846C214.784 273.877 214.791 273.911 214.789 273.946C214.301 281.609 198.477 284.016 197.845 284.105L197.805 284.11ZM204.298 275.837C204.249 275.847 204.199 275.839 204.155 275.816C204.111 275.792 204.077 275.754 204.058 275.708C204.039 275.662 204.036 275.611 204.05 275.563C204.065 275.516 204.095 275.475 204.137 275.447C206.494 273.901 212.387 270.069 212.732 270.069C213.077 270.069 214.296 271.71 214.682 272.243C214.714 272.287 214.728 272.342 214.721 272.397C214.713 272.451 214.685 272.5 214.641 272.534C212.876 273.825 206.826 275.286 204.276 275.855L204.298 275.837ZM217.254 271.45C217.299 271.172 215.502 269.254 214.955 268.676C214.934 268.656 214.917 268.632 214.905 268.605C214.894 268.579 214.888 268.55 214.888 268.521C214.888 268.492 214.894 268.463 214.905 268.437C214.917 268.41 214.934 268.386 214.955 268.366L217.729 266.063C217.753 266.043 217.781 266.028 217.811 266.019C217.841 266.011 217.873 266.009 217.904 266.014C220.938 266.542 220.902 268.071 220.848 268.434C220.841 268.483 220.815 268.528 220.777 268.559C220.324 268.98 217.182 271.772 217.232 271.459L217.254 271.45ZM218.227 275.21C218.184 274.315 218.064 273.426 217.868 272.552C217.86 272.509 217.866 272.464 217.884 272.424C217.903 272.384 217.933 272.35 217.971 272.328C218.558 271.983 220.978 270.585 220.884 271.127C220.75 271.763 218.137 275.783 218.204 275.228L218.227 275.21Z" fill="url(#paint16_linear_59:29)"/>
<path d="M187.426 70.3297C191.663 70.3297 195.098 66.8947 195.098 62.6574C195.098 58.4201 191.663 54.9851 187.426 54.9851C183.188 54.9851 179.753 58.4201 179.753 62.6574C179.753 66.8947 183.188 70.3297 187.426 70.3297Z" fill="#161616"/>
<path d="M149.871 63.8405C153.854 63.8405 157.082 60.7085 157.082 56.8449C157.082 52.9814 153.854 49.8493 149.871 49.8493C145.889 49.8493 142.661 52.9814 142.661 56.8449C142.661 60.7085 145.889 63.8405 149.871 63.8405Z" fill="#161616"/>
<path d="M148.087 56.9928C149.248 56.9928 150.189 56.0518 150.189 54.891C150.189 53.7302 149.248 52.7892 148.087 52.7892C146.926 52.7892 145.985 53.7302 145.985 54.891C145.985 56.0518 146.926 56.9928 148.087 56.9928Z" fill="#DFDFDF"/>
<path d="M185.158 62.4826C186.403 62.4826 187.412 61.4734 187.412 60.2285C187.412 58.9835 186.403 57.9743 185.158 57.9743C183.913 57.9743 182.904 58.9835 182.904 60.2285C182.904 61.4734 183.913 62.4826 185.158 62.4826Z" fill="#DFDFDF"/>
<defs>
<linearGradient id="paint0_linear_59:29" x1="222.556" y1="125.331" x2="239.998" y2="125.331" gradientUnits="userSpaceOnUse">
<stop stop-color="#FF88B8"/>
<stop offset="1" stop-color="#FF5592"/>
</linearGradient>
<linearGradient id="paint1_linear_59:29" x1="257.135" y1="210.909" x2="292.655" y2="210.909" gradientUnits="userSpaceOnUse">
<stop stop-color="#9A4FA4"/>
<stop offset="1" stop-color="#A965DE"/>
</linearGradient>
<linearGradient id="paint2_linear_59:29" x1="9819.06" y1="50539.9" x2="11774.2" y2="50539.9" gradientUnits="userSpaceOnUse">
<stop stop-color="#9A4FA4"/>
<stop offset="1" stop-color="#A965DE"/>
</linearGradient>
<linearGradient id="paint3_linear_59:29" x1="27900.9" y1="135626" x2="33591.8" y2="135626" gradientUnits="userSpaceOnUse">
<stop stop-color="#FF88B8"/>
<stop offset="1" stop-color="#FF5592"/>
</linearGradient>
<linearGradient id="paint4_linear_59:29" x1="27255.7" y1="66179.2" x2="30881.7" y2="66179.2" gradientUnits="userSpaceOnUse">
<stop stop-color="#9A4FA4"/>
<stop offset="1" stop-color="#A965DE"/>
</linearGradient>
<linearGradient id="paint5_linear_59:29" x1="222.556" y1="131.856" x2="238.017" y2="131.856" gradientUnits="userSpaceOnUse">
<stop stop-color="#FF88B8"/>
<stop offset="1" stop-color="#FF87B7" stop-opacity="0.8"/>
</linearGradient>
<linearGradient id="paint6_linear_59:29" x1="256.208" y1="209.811" x2="268.814" y2="209.811" gradientUnits="userSpaceOnUse">
<stop stop-color="#BF88E4"/>
<stop offset="1" stop-color="#A965DE"/>
</linearGradient>
<linearGradient id="paint7_linear_59:29" x1="8518.31" y1="16507.2" x2="9892.26" y2="16507.2" gradientUnits="userSpaceOnUse">
<stop stop-color="#BF88E4"/>
<stop offset="1" stop-color="#A965DE"/>
</linearGradient>
<linearGradient id="paint8_linear_59:29" x1="10159.9" y1="21303.8" x2="10726.4" y2="21303.8" gradientUnits="userSpaceOnUse">
<stop stop-color="#FF88B8"/>
<stop offset="1" stop-color="#FF87B7" stop-opacity="0.8"/>
</linearGradient>
<linearGradient id="paint9_linear_59:29" x1="7369.39" y1="19550.3" x2="8167.66" y2="19550.3" gradientUnits="userSpaceOnUse">
<stop stop-color="#BF88E4"/>
<stop offset="1" stop-color="#A965DE"/>
</linearGradient>
<linearGradient id="paint10_linear_59:29" x1="3745.28" y1="36590.3" x2="4009.03" y2="36590.3" gradientUnits="userSpaceOnUse">
<stop stop-color="#FF88B8"/>
<stop offset="1" stop-color="#FF87B7" stop-opacity="0.8"/>
</linearGradient>
<linearGradient id="paint11_linear_59:29" x1="150.059" y1="262.608" x2="159.672" y2="262.608" gradientUnits="userSpaceOnUse">
<stop stop-color="#FF00A4"/>
<stop offset="1" stop-color="#CD4FE3"/>
</linearGradient>
<linearGradient id="paint12_linear_59:29" x1="2487.07" y1="8597.35" x2="2537.51" y2="8597.35" gradientUnits="userSpaceOnUse">
<stop stop-color="#FF00A4"/>
<stop offset="1" stop-color="#CD4FE3"/>
</linearGradient>
<linearGradient id="paint13_linear_59:29" x1="4455.48" y1="8701.22" x2="4592.69" y2="8701.22" gradientUnits="userSpaceOnUse">
<stop stop-color="#FF00A4"/>
<stop offset="1" stop-color="#CD4FE3"/>
</linearGradient>
<linearGradient id="paint14_linear_59:29" x1="7449.17" y1="8803.06" x2="7788.94" y2="8803.06" gradientUnits="userSpaceOnUse">
<stop stop-color="#FF00A4"/>
<stop offset="1" stop-color="#CD4FE3"/>
</linearGradient>
<linearGradient id="paint15_linear_59:29" x1="4774.21" y1="3508.1" x2="4898.49" y2="3508.1" gradientUnits="userSpaceOnUse">
<stop stop-color="#FF00A4"/>
<stop offset="1" stop-color="#CD4FE3"/>
</linearGradient>
<linearGradient id="paint16_linear_59:29" x1="31507" y1="42958.4" x2="43364.4" y2="42958.4" gradientUnits="userSpaceOnUse">
<stop stop-color="#FF00A4"/>
<stop offset="1" stop-color="#CD4FE3"/>
</linearGradient>
</defs>
</svg>
