<svg width="403" height="385" viewBox="0 0 403 385" fill="none" xmlns="http://www.w3.org/2000/svg">
<path d="M222.589 284.03L179.042 309.172L182.146 310.966L225.697 285.823L222.589 284.03Z" fill="#848484"/>
<path d="M225.697 289.415L182.15 314.561L182.146 310.966L225.697 285.823V289.415Z" fill="#BEBEBE"/>
<path d="M213.258 293.006V205.058L216.37 203.261V291.212L213.258 293.006Z" fill="#BEBEBE"/>
<path d="M210.146 291.208V206.852L213.258 205.058V293.006L210.146 291.208Z" fill="#848484"/>
<path d="M179.042 309.172L182.146 310.966L182.15 314.561L179.042 312.767V309.172Z" fill="#848484"/>
<path d="M129.272 230.154L85.7253 255.296L88.8291 257.09L132.38 231.951L129.272 230.154Z" fill="#848484"/>
<path d="M132.38 235.539L88.833 260.685L88.8291 257.09L132.38 231.951V235.539Z" fill="#BEBEBE"/>
<path d="M119.941 239.13V151.182L123.053 149.384V237.332L119.941 239.13Z" fill="#BEBEBE"/>
<path d="M116.833 237.332V152.976L119.941 151.182V239.13L116.833 237.332Z" fill="#848484"/>
<path d="M85.7253 255.296L88.8291 257.09L88.8331 260.685L85.7253 258.891V255.296Z" fill="#848484"/>
<path d="M85.7253 169.095V172.706L179.042 226.582V222.971L85.7253 169.095Z" fill="black"/>
<path d="M135.495 140.362L85.7253 169.095L179.042 222.971L228.812 194.238L135.495 140.362Z" fill="#848484"/>
<path d="M228.808 197.821L179.042 226.582V222.971L228.812 194.238L228.808 197.821Z" fill="#D7D7D7"/>
<path d="M165.762 187.036C165.757 186.995 165.742 186.957 165.718 186.924C165.694 186.892 165.662 186.865 165.625 186.848L137.281 170.472C137.177 170.42 137.062 170.393 136.946 170.393C136.83 170.393 136.715 170.42 136.611 170.472L126.083 176.558C126.045 176.576 126.012 176.603 125.988 176.638C125.964 176.672 125.95 176.712 125.946 176.753V177.264C125.953 177.302 125.968 177.338 125.991 177.369C126.014 177.401 126.044 177.426 126.079 177.443L126.414 177.635L154.423 193.828C154.527 193.88 154.642 193.907 154.758 193.907C154.874 193.907 154.989 193.88 155.093 193.828L165.333 187.901L165.606 187.745C165.642 187.728 165.674 187.702 165.697 187.669C165.721 187.636 165.737 187.598 165.742 187.558V187.02L165.762 187.036Z" fill="#848484"/>
<path d="M165.625 187.238L165.352 187.394L155.113 193.321C155.008 193.373 154.894 193.4 154.777 193.4C154.661 193.4 154.546 193.373 154.442 193.321L126.434 177.128L126.098 176.937C126.056 176.925 126.019 176.899 125.992 176.864C125.966 176.829 125.951 176.786 125.951 176.742C125.951 176.698 125.966 176.655 125.992 176.62C126.019 176.584 126.056 176.559 126.098 176.547L136.626 170.46C136.73 170.408 136.845 170.381 136.962 170.381C137.078 170.381 137.193 170.408 137.297 170.46L165.641 186.837C165.685 186.849 165.724 186.877 165.752 186.914C165.779 186.952 165.793 186.997 165.791 187.044C165.789 187.09 165.772 187.135 165.742 187.17C165.712 187.205 165.671 187.229 165.625 187.238Z" fill="#BEBEBE"/>
<path opacity="0.7" d="M165.321 187.012L155.085 192.939C154.981 192.991 154.866 193.018 154.75 193.018C154.634 193.018 154.519 192.991 154.415 192.939L126.402 176.746L136.642 170.819C136.745 170.765 136.86 170.737 136.977 170.737C137.094 170.737 137.209 170.765 137.312 170.819L165.321 187.012Z" fill="#BEBEBE"/>
<path d="M156.314 191.5L155.144 192.179L128.266 176.632L129.436 175.954L156.314 191.5Z" fill="white"/>
<path d="M158.107 190.448L156.937 191.122L130.056 175.576L131.229 174.901L158.107 190.448Z" fill="white"/>
<path d="M159.897 189.391L158.727 190.065L131.85 174.523L133.019 173.844L159.897 189.391Z" fill="white"/>
<path d="M161.691 188.334L160.521 189.013L136.17 174.948L137.34 174.27L161.691 188.334Z" fill="white"/>
<path d="M138.974 172.796L137.804 173.474L135.808 172.281L136.977 171.606L138.974 172.796Z" fill="white"/>
<path d="M136.88 173.926L135.71 174.605L133.709 173.412L134.883 172.737L136.88 173.926Z" fill="white"/>
<path d="M141.442 174.242L140.272 174.921L138.271 173.728L139.445 173.049L141.442 174.242Z" fill="white"/>
<path d="M143.906 175.689L142.736 176.367L140.74 175.174L141.91 174.496L143.906 175.689Z" fill="white"/>
<path d="M146.375 177.132L145.205 177.81L143.205 176.617L144.378 175.942L146.375 177.132Z" fill="white"/>
<path d="M148.839 178.578L147.669 179.257L145.672 178.063L146.846 177.385L148.839 178.578Z" fill="white"/>
<path d="M151.307 180.025L150.137 180.703L148.141 179.51L149.31 178.832L151.307 180.025Z" fill="white"/>
<path d="M153.775 181.468L152.605 182.146L150.605 180.953L151.779 180.278L153.775 181.468Z" fill="white"/>
<path d="M156.24 182.914L155.07 183.593L153.074 182.399L154.244 181.721L156.24 182.914Z" fill="white"/>
<path d="M158.708 184.361L157.538 185.039L155.538 183.846L156.711 183.168L158.708 184.361Z" fill="white"/>
<path d="M161.172 185.807L160.006 186.482L158.006 185.289L159.18 184.614L161.172 185.807Z" fill="white"/>
<path d="M163.64 187.25L162.471 187.929L160.474 186.735L161.644 186.061L163.64 187.25Z" fill="white"/>
<path d="M196.102 198.125V198.433L205.37 203.783L219.275 195.754V195.45L205.37 203.479L196.102 198.125Z" fill="#595959"/>
<path d="M196.102 195.45V198.125L205.37 203.479L219.275 195.45V192.775L205.37 200.804L196.102 195.45Z" fill="white"/>
<path d="M196.102 195.45L205.37 200.804L219.275 192.775L210.006 187.422L196.102 195.45Z" fill="#595959"/>
<path d="M196.102 195.45V198.433L196.3 198.546V195.567L196.102 195.45Z" fill="#595959"/>
<path d="M196.102 194.717V195.021L205.37 200.375L219.275 192.346V192.042L205.37 200.071L196.102 194.717Z" fill="#D7D7D7"/>
<path d="M196.102 192.042V194.717L205.37 200.071L219.275 192.042V189.364L205.37 197.392L196.102 192.042Z" fill="white"/>
<path d="M196.102 192.042L205.37 197.392L219.275 189.364L210.006 184.014L196.102 192.042Z" fill="#D7D7D7"/>
<path d="M205.37 197.392V200.375L219.275 192.346V189.364L205.37 197.392Z" fill="#D7D7D7"/>
<path d="M196.102 191.34V191.649L205.37 196.998L219.275 188.97V188.666L205.37 196.694L196.102 191.34Z" fill="#595959"/>
<path d="M196.102 188.666V191.34L205.37 196.694L219.275 188.666V185.991L205.37 194.015L196.102 188.666Z" fill="white"/>
<path d="M196.102 188.666L205.37 194.015L219.275 185.991L210.006 180.637L196.102 188.666Z" fill="#595959"/>
<path d="M196.102 188.666V191.649L196.3 191.762V188.779L196.102 188.666Z" fill="#595959"/>
<path d="M148.535 167.224V169.353L159.593 175.736V173.611L148.535 167.224Z" fill="#ECECEC"/>
<path d="M166.639 171.665L159.593 175.736V173.611L165.126 170.417V166.159L166.639 166.76V171.665Z" fill="#D7D7D7"/>
<path d="M154.063 159.772V164.03L165.126 170.417V166.159L154.063 159.772Z" fill="#FDFDFD"/>
<path d="M137.157 141.781L135.492 142.744V147.205C135.491 147.79 135.645 148.364 135.937 148.871C136.23 149.377 136.65 149.798 137.157 150.09L183.78 176.995C183.952 177.098 184.148 177.152 184.347 177.152C184.547 177.152 184.743 177.098 184.915 176.995L186.556 176.051C186.723 175.954 186.861 175.814 186.957 175.647C187.053 175.479 187.103 175.289 187.102 175.096V170.417L137.157 141.781Z" fill="#ECECEC"/>
<path d="M135.492 147.205C135.491 147.79 135.645 148.364 135.937 148.871C136.23 149.377 136.65 149.798 137.157 150.09L183.78 176.995C184.517 177.424 185.266 176.89 185.266 176.032V171.47L135.492 142.732V147.205Z" fill="#FDFDFD"/>
<path d="M148.535 167.224L154.064 164.03L165.126 170.417L159.593 173.611L148.535 167.224Z" fill="#FCFCFC"/>
<path d="M187.11 136.353C187.11 134.817 186.786 134.041 185.266 133.16L138.95 106.422C138.785 106.328 138.596 106.281 138.405 106.288C138.214 106.295 138.029 106.355 137.87 106.461L136.049 107.51C135.878 107.607 135.735 107.747 135.636 107.917C135.538 108.087 135.486 108.281 135.488 108.477V142.744L185.262 171.482L187.106 170.417L187.11 136.353Z" fill="#A1A1A1"/>
<path d="M183.78 134.435L137.157 107.53C136.988 107.433 136.796 107.382 136.601 107.382C136.407 107.382 136.215 107.434 136.047 107.531C135.878 107.629 135.738 107.769 135.64 107.938C135.543 108.107 135.492 108.298 135.492 108.493V142.76L185.266 171.497V137.433C185.266 135.932 184.81 135.027 183.78 134.435Z" fill="black"/>
<path d="M137.157 109.643V141.574L183.425 168.288V136.357L137.157 109.643Z" fill="black"/>
<path d="M163.129 130.921L157.573 127.712V128.675L163.129 131.885V130.921Z" fill="url(#paint0_linear_18:104)"/>
<path d="M147.322 120.729L141.766 117.524V116.557L147.322 119.766V120.729Z" fill="url(#paint1_linear_18:104)"/>
<path d="M149.665 122.082L148.141 121.205V120.237L149.665 121.119V122.082Z" fill="url(#paint2_linear_18:104)"/>
<path d="M154.411 124.823L150.473 122.55V121.587L154.411 123.86V124.823Z" fill="url(#paint3_linear_18:104)"/>
<path d="M156.754 126.176L155.229 125.295V124.332L156.754 125.213V126.176Z" fill="url(#paint4_linear_18:104)"/>
<path d="M148.671 142.108L141.766 138.12V137.156L148.671 141.141V142.108Z" fill="url(#paint5_linear_18:104)"/>
<path d="M155.6 146.109L149.49 142.58V141.617L155.6 145.142V146.109Z" fill="url(#paint6_linear_18:104)"/>
<path d="M160.349 148.85L156.411 146.573V145.61L160.349 147.883V148.85Z" fill="url(#paint7_linear_18:104)"/>
<path d="M169.221 149.86L162.311 145.875V144.908L169.221 148.897V149.86Z" fill="url(#paint8_linear_18:104)"/>
<path d="M151.194 125.006L156.754 128.215V127.248L151.194 124.043V125.006Z" fill="url(#paint9_linear_18:104)"/>
<path d="M148.854 123.653L150.375 124.534V123.567L148.854 122.69V123.653Z" fill="url(#paint10_linear_18:104)"/>
<path d="M144.105 120.912L148.047 123.185V122.222L144.105 119.949V120.912Z" fill="url(#paint11_linear_18:104)"/>
<path d="M141.766 119.563L143.29 120.44V119.477L141.766 118.596V119.563Z" fill="url(#paint12_linear_18:104)"/>
<path d="M164.662 130.742L170.219 133.947V132.984L164.662 129.775V130.742Z" fill="url(#paint13_linear_18:104)"/>
<path d="M162.318 129.389L163.843 130.266V129.303L162.318 128.426V129.389Z" fill="url(#paint14_linear_18:104)"/>
<path d="M157.573 126.648L161.511 128.921V127.958L157.573 125.685V126.648Z" fill="url(#paint15_linear_18:104)"/>
<path d="M171.033 134.419L174.971 136.692V135.729L171.033 133.456V134.419Z" fill="url(#paint16_linear_18:104)"/>
<path d="M161.516 147.466L167.072 150.675V149.712L161.516 146.503V147.466Z" fill="url(#paint17_linear_18:104)"/>
<path d="M159.172 146.113L160.696 146.994V146.027L159.172 145.15V146.113Z" fill="url(#paint18_linear_18:104)"/>
<path d="M167.887 151.143L171.825 153.416V152.453L167.887 150.18V151.143Z" fill="url(#paint19_linear_18:104)"/>
<path d="M147.322 124.823L141.766 121.614V120.651L147.322 123.86V124.823Z" fill="url(#paint20_linear_18:104)"/>
<path d="M151.915 127.475L148.141 125.295V124.332L151.915 126.511V127.475Z" fill="url(#paint21_linear_18:104)"/>
<path d="M158.365 131.198L152.707 127.931V126.968L158.365 130.235V131.198Z" fill="url(#paint22_linear_18:104)"/>
<path d="M151.194 139.453L156.754 142.662V141.699L151.194 138.49V139.453Z" fill="url(#paint23_linear_18:104)"/>
<path d="M148.854 138.104L150.375 138.981V138.018L148.854 137.141V138.104Z" fill="url(#paint24_linear_18:104)"/>
<path d="M144.105 135.363L148.047 137.636V136.673L144.105 134.4V135.363Z" fill="url(#paint25_linear_18:104)"/>
<path d="M157.569 143.134L161.508 145.407V144.444L157.569 142.171V143.134Z" fill="url(#paint26_linear_18:104)"/>
<path d="M141.766 134.01L143.29 134.891V133.924L141.766 133.047V134.01Z" fill="url(#paint27_linear_18:104)"/>
<path d="M147.322 139.274L141.766 136.065V135.101L147.322 138.307V139.274Z" fill="url(#paint28_linear_18:104)"/>
<path d="M151.915 141.925L148.141 139.745V138.782L151.915 140.958V141.925Z" fill="url(#paint29_linear_18:104)"/>
<path d="M158.365 145.649L152.707 142.381V141.414L158.365 144.682V145.649Z" fill="url(#paint30_linear_18:104)"/>
<path d="M167.875 143.918L162.318 140.709V139.742L167.875 142.951V143.918Z" fill="url(#paint31_linear_18:104)"/>
<path d="M172.468 146.569L168.694 144.389V143.426L172.468 145.606V146.569Z" fill="url(#paint32_linear_18:104)"/>
<path d="M178.918 150.293L173.26 147.025V146.058L178.918 149.326V150.293Z" fill="url(#paint33_linear_18:104)"/>
<path d="M148.854 127.744L153.003 130.142V129.178L148.854 126.78V127.744Z" fill="url(#paint34_linear_18:104)"/>
<path d="M144.105 125.002L148.047 127.28V126.313L144.105 124.039V125.002Z" fill="url(#paint35_linear_18:104)"/>
<path d="M141.766 123.653L143.29 124.531V123.567L141.766 122.69V123.653Z" fill="url(#paint36_linear_18:104)"/>
<path d="M160.899 134.7L165.048 137.094V136.131L160.899 133.737V134.7Z" fill="url(#paint37_linear_18:104)"/>
<path d="M156.15 131.959L160.088 134.232V133.269L156.15 130.996V131.959Z" fill="url(#paint38_linear_18:104)"/>
<path d="M153.81 130.606L155.331 131.487V130.52L153.81 129.643V130.606Z" fill="url(#paint39_linear_18:104)"/>
<path d="M157.565 140.003L161.714 142.397V141.434L157.565 139.036V140.003Z" fill="url(#paint40_linear_18:104)"/>
<path d="M169.61 146.955L173.759 149.349V148.386L169.61 145.992V146.955Z" fill="url(#paint41_linear_18:104)"/>
<path d="M164.861 144.214L168.799 146.487V145.524L164.861 143.251V144.214Z" fill="url(#paint42_linear_18:104)"/>
<path d="M162.521 142.861L164.042 143.742V142.779L162.521 141.898V142.861Z" fill="url(#paint43_linear_18:104)"/>
<path d="M166.265 135.757L170.413 138.155V137.188L166.265 134.793V135.757Z" fill="url(#paint44_linear_18:104)"/>
<path d="M161.516 133.015L165.454 135.293V134.326L161.516 132.052V133.015Z" fill="url(#paint45_linear_18:104)"/>
<path d="M159.176 131.666L160.7 132.544V131.58L159.176 130.699V131.666Z" fill="url(#paint46_linear_18:104)"/>
<path d="M147.322 133.125L141.766 129.915V130.879L147.322 134.088V133.125Z" fill="url(#paint47_linear_18:104)"/>
<path d="M149.665 134.478L148.141 133.596V134.559L149.665 135.441V134.478Z" fill="url(#paint48_linear_18:104)"/>
<path d="M154.411 137.219L150.473 134.942V135.909L154.411 138.182V137.219Z" fill="url(#paint49_linear_18:104)"/>
<path d="M156.754 138.568L155.229 137.691V138.654L156.754 139.531V138.568Z" fill="url(#paint50_linear_18:104)"/>
<path d="M151.194 133.32L156.754 136.529V137.496L151.194 134.287V133.32Z" fill="url(#paint51_linear_18:104)"/>
<path d="M148.854 131.97L150.375 132.848V133.815L148.854 132.933V131.97Z" fill="url(#paint52_linear_18:104)"/>
<path d="M144.105 129.229L148.047 131.502V132.466L144.105 130.192V129.229Z" fill="url(#paint53_linear_18:104)"/>
<path d="M157.569 137L161.508 139.274V140.237L157.569 137.964V137Z" fill="url(#paint54_linear_18:104)"/>
<path d="M141.766 127.876L143.29 128.757V129.72L141.766 128.839V127.876Z" fill="url(#paint55_linear_18:104)"/>
<path d="M168.604 141.321L174.16 144.53V145.493L168.604 142.284V141.321Z" fill="url(#paint56_linear_18:104)"/>
<path d="M166.265 139.968L167.785 140.849V141.812L166.265 140.931V139.968Z" fill="url(#paint57_linear_18:104)"/>
<path d="M161.516 137.227L165.454 139.5V140.467L161.516 138.19V137.227Z" fill="url(#paint58_linear_18:104)"/>
<path d="M159.176 135.874L160.696 136.755V137.718L159.176 136.841V135.874Z" fill="url(#paint59_linear_18:104)"/>
<path d="M147.322 129.034L141.766 125.825V126.788L147.322 129.997V129.034Z" fill="url(#paint60_linear_18:104)"/>
<path d="M151.915 131.686L148.141 129.506V130.469L151.915 132.649V131.686Z" fill="url(#paint61_linear_18:104)"/>
<path d="M158.365 135.41L152.707 132.142V133.105L158.365 136.373V135.41Z" fill="url(#paint62_linear_18:104)"/>
<path d="M167.723 133.573L163.948 131.393V132.356L167.723 134.536V133.573Z" fill="url(#paint63_linear_18:104)"/>
<path d="M174.172 137.297L168.515 134.029V134.992L174.172 138.26V137.297Z" fill="url(#paint64_linear_18:104)"/>
<path opacity="0.7" d="M266.136 60.2864V157.487C266.136 157.744 266.203 157.996 266.331 158.218C266.459 158.441 266.643 158.626 266.865 158.754L400.809 236.088C401.031 236.216 401.283 236.283 401.54 236.283C401.796 236.283 402.048 236.215 402.27 236.087C402.492 235.958 402.676 235.774 402.805 235.552C402.933 235.33 403 235.078 403 234.821V137.613C403 137.357 402.932 137.105 402.804 136.883C402.676 136.662 402.493 136.478 402.271 136.349L268.324 59.0113C268.101 58.8828 267.849 58.8154 267.592 58.816C267.335 58.8165 267.082 58.8849 266.86 59.0143C266.638 59.1438 266.454 59.3296 266.327 59.553C266.2 59.7764 266.134 60.0294 266.136 60.2864Z" fill="url(#paint65_linear_18:104)"/>
<path opacity="0.4" d="M259.921 63.8698V161.067C259.921 161.324 259.989 161.576 260.118 161.798C260.247 162.021 260.431 162.205 260.654 162.334L394.59 239.652C394.812 239.78 395.064 239.847 395.32 239.847C395.577 239.847 395.829 239.779 396.051 239.651C396.273 239.522 396.457 239.338 396.585 239.116C396.713 238.893 396.781 238.641 396.781 238.385V141.208C396.781 140.951 396.714 140.699 396.586 140.476C396.458 140.254 396.274 140.069 396.052 139.94L262.104 62.6026C261.882 62.4766 261.631 62.411 261.376 62.4123C261.121 62.4135 260.87 62.4816 260.649 62.6098C260.428 62.7379 260.245 62.9217 260.117 63.1427C259.989 63.3638 259.922 63.6145 259.921 63.8698Z" fill="#8100FF"/>
<path d="M272.398 115.773C272.398 115.773 279.222 127.681 287.04 132.15C308.584 144.444 310.697 121.719 324.707 129.393C337.996 136.673 339.676 153.467 350.746 159.858C361.528 166.097 366.932 153.939 376.871 141.204C380.876 136.068 384.323 145.859 384.323 145.859V219.353L272.398 154.726V115.773Z" fill="url(#paint66_linear_18:104)"/>
<path opacity="0.7" d="M272.398 122.636C272.398 122.636 283.589 139.34 291.407 143.851C305.975 152.262 317.236 141.859 328.361 148.285C339.618 154.785 344.246 170.351 355.312 176.749C361.824 180.508 370.426 168.463 375.405 165.812C380.123 163.301 384.253 170.491 384.253 170.491L384.323 219.353L272.398 154.726V122.636Z" fill="#CDABFF"/>
<path opacity="0.9" d="M272.398 135.495C272.398 135.495 283.648 119.317 291.727 126.589C305.476 138.966 317.166 167.723 328.29 174.16C339.551 180.66 351.526 160.731 362.604 167.142C373.912 173.677 384.331 193.871 384.331 193.871V219.38L272.398 154.726V135.495Z" fill="#F7F9FD"/>
<g style="mix-blend-mode:multiply" opacity="0.05">
<path d="M70.2879 260.767L283.725 383.983C284.053 384.173 284.425 384.273 284.804 384.273C285.182 384.273 285.554 384.173 285.882 383.983L343.981 350.489C345.42 349.658 345.954 348.114 344.515 347.284L130.329 223.587C130 223.398 129.628 223.298 129.249 223.298C128.869 223.298 128.497 223.398 128.169 223.587L70.2879 257.027C69.9601 257.217 69.6878 257.49 69.4986 257.818C69.3093 258.146 69.2097 258.518 69.2097 258.897C69.2097 259.276 69.3093 259.648 69.4986 259.976C69.6878 260.304 69.9601 260.577 70.2879 260.767Z" fill="#161616"/>
</g>
<g style="mix-blend-mode:multiply" opacity="0.05">
<path d="M258.244 304.602L301.893 329.659C302.354 329.925 302.877 330.065 303.409 330.065C303.942 330.065 304.465 329.925 304.926 329.659L342.453 308.213C342.914 307.947 343.298 307.564 343.564 307.102C343.831 306.641 343.971 306.118 343.971 305.585C343.971 305.052 343.831 304.529 343.564 304.067C343.298 303.606 342.914 303.223 342.453 302.957L298.754 277.748C298.292 277.482 297.769 277.342 297.237 277.342C296.704 277.342 296.181 277.482 295.72 277.748L258.244 299.362C257.787 299.63 257.408 300.012 257.145 300.472C256.882 300.932 256.743 301.452 256.743 301.982C256.743 302.512 256.882 303.032 257.145 303.492C257.408 303.951 257.787 304.334 258.244 304.602Z" fill="#161616"/>
</g>
<g style="mix-blend-mode:multiply" opacity="0.05">
<path d="M59.6378 322.751C72.5408 321.178 82.2794 313.985 81.3895 306.685C80.4996 299.384 69.3182 294.742 56.4152 296.314C43.5122 297.887 33.7736 305.08 34.6635 312.38C35.5534 319.681 46.7348 324.324 59.6378 322.751Z" fill="#161616"/>
</g>
<path d="M311.986 293.807C312.434 292.755 312.315 291.697 311.721 291.444C311.126 291.191 310.281 291.839 309.834 292.891C309.386 293.943 309.505 295.001 310.099 295.254C310.694 295.507 311.539 294.859 311.986 293.807Z" fill="black"/>
<path d="M309.562 294.14C309.569 293.636 309.695 293.14 309.93 292.693C310.164 292.246 310.5 291.86 310.911 291.567C311.038 291.474 311.189 291.419 311.346 291.407C311.503 291.396 311.66 291.428 311.8 291.501L310.63 290.83C310.491 290.758 310.334 290.725 310.177 290.736C310.02 290.747 309.869 290.801 309.741 290.892C309.331 291.187 308.995 291.573 308.76 292.021C308.526 292.468 308.4 292.965 308.392 293.47C308.366 293.68 308.398 293.893 308.484 294.087C308.569 294.281 308.706 294.447 308.88 294.569L309.995 295.213C309.839 295.084 309.718 294.919 309.643 294.731C309.567 294.544 309.539 294.341 309.562 294.14Z" fill="#595959"/>
<path d="M272.471 316.311C272.919 315.259 272.8 314.201 272.206 313.948C271.611 313.695 270.766 314.343 270.318 315.395C269.871 316.447 269.99 317.505 270.584 317.758C271.179 318.011 272.024 317.363 272.471 316.311Z" fill="black"/>
<path d="M270.059 316.639C270.067 316.135 270.193 315.64 270.426 315.193C270.66 314.746 270.995 314.36 271.404 314.066C271.533 313.975 271.684 313.92 271.841 313.909C271.999 313.897 272.156 313.928 272.297 313.999L271.127 313.329C270.987 313.257 270.829 313.225 270.671 313.237C270.514 313.248 270.363 313.303 270.234 313.395C269.489 313.824 268.889 314.978 268.889 315.969C268.862 316.179 268.893 316.393 268.978 316.587C269.063 316.782 269.199 316.949 269.372 317.072L270.492 317.715C270.336 317.586 270.214 317.42 270.139 317.232C270.063 317.044 270.036 316.84 270.059 316.639Z" fill="#595959"/>
<path d="M310.555 317.845C311.149 317.592 311.268 316.534 310.82 315.482C310.373 314.43 309.528 313.782 308.933 314.035C308.339 314.288 308.22 315.346 308.668 316.398C309.115 317.45 309.96 318.098 310.555 317.845Z" fill="black"/>
<path d="M312.261 316.035C312.253 315.53 312.127 315.035 311.892 314.588C311.658 314.141 311.322 313.755 310.911 313.461C310.781 313.367 310.627 313.312 310.467 313.303C310.307 313.293 310.147 313.329 310.007 313.407L308.872 314.058C309.011 313.991 309.165 313.963 309.319 313.976C309.472 313.989 309.62 314.043 309.746 314.132C310.49 314.561 311.091 315.715 311.091 316.709C311.117 316.916 311.087 317.126 311.005 317.317C310.922 317.508 310.791 317.674 310.623 317.797L311.793 317.123C311.958 316.997 312.088 316.831 312.17 316.641C312.252 316.45 312.283 316.241 312.261 316.035Z" fill="#595959"/>
<path d="M271.034 295.133C271.628 294.88 271.747 293.822 271.299 292.77C270.852 291.717 270.007 291.069 269.412 291.322C268.818 291.575 268.699 292.633 269.147 293.686C269.594 294.738 270.439 295.386 271.034 295.133Z" fill="black"/>
<path d="M272.741 293.322C272.734 292.818 272.608 292.322 272.374 291.875C272.141 291.428 271.806 291.042 271.396 290.748C271.266 290.654 271.112 290.599 270.952 290.59C270.792 290.58 270.632 290.616 270.492 290.694L269.361 291.349C269.5 291.282 269.654 291.254 269.808 291.267C269.961 291.28 270.108 291.334 270.234 291.423C270.645 291.716 270.981 292.102 271.215 292.549C271.449 292.996 271.576 293.492 271.583 293.996C271.607 294.203 271.576 294.413 271.494 294.604C271.412 294.795 271.281 294.962 271.116 295.088L272.285 294.413C272.449 294.286 272.577 294.119 272.657 293.928C272.737 293.736 272.766 293.528 272.741 293.322Z" fill="#595959"/>
<path d="M290.859 304.915C293.055 304.647 294.712 303.424 294.56 302.182C294.409 300.94 292.506 300.15 290.311 300.417C288.116 300.685 286.459 301.909 286.61 303.151C286.761 304.393 288.664 305.183 290.859 304.915Z" fill="#808080"/>
<path d="M292.48 268.148H288.276V302.676H292.48V268.148Z" fill="#808080"/>
<path d="M269.302 314.951C268.682 314.592 268.76 313.964 269.478 313.551L309.414 290.491C309.782 290.286 310.194 290.171 310.615 290.154C311.036 290.137 311.455 290.219 311.839 290.393C312.459 290.752 312.381 291.376 311.664 291.793L271.727 314.849C271.359 315.055 270.948 315.171 270.527 315.188C270.106 315.206 269.686 315.125 269.302 314.951Z" fill="#808080"/>
<path d="M269.302 290.393C268.682 290.752 268.76 291.376 269.478 291.793L309.414 314.849C309.782 315.055 310.193 315.171 310.614 315.188C311.036 315.206 311.455 315.125 311.839 314.951C312.459 314.592 312.381 313.964 311.664 313.551L271.727 290.491C271.359 290.286 270.948 290.171 270.526 290.154C270.105 290.137 269.686 290.219 269.302 290.393Z" fill="#808080"/>
<path d="M321.408 269.782C321.459 268.827 320.913 267.902 319.735 267.224L295.076 252.988C292.585 251.549 288.229 251.728 285.351 253.378L262.104 266.815C260.544 267.723 259.733 268.881 259.729 269.985V272.258C259.729 273.159 260.295 274.016 261.406 274.656L286.065 288.892C288.557 290.331 292.912 290.152 295.79 288.502L319.037 275.065C320.577 274.176 321.377 273.045 321.408 271.946V269.782Z" fill="#D7D7D7"/>
<path d="M322.087 223.72L297.428 209.484C296.312 208.84 295.291 208.794 294.503 209.234L292.14 210.595C291.165 211.137 290.545 212.424 290.545 214.26V238.342C290.545 241.664 292.565 245.525 295.061 246.963L319.72 261.2C320.862 261.859 321.899 261.89 322.695 261.414L325.058 260.049C325.997 259.488 326.594 258.221 326.594 256.419V232.341C326.598 229.019 324.578 225.159 322.087 223.72Z" fill="#D7D7D7"/>
<path d="M286.065 286.677L261.406 272.441C258.914 271.002 259.226 268.487 262.104 266.826L285.351 253.389C288.229 251.728 292.584 251.549 295.076 252.999L319.735 267.236C322.227 268.674 321.915 271.19 319.037 272.851L295.793 286.276C292.912 287.937 288.556 288.116 286.065 286.677Z" fill="#848484"/>
<path d="M319.724 261.2L295.065 246.963C292.569 245.525 290.549 241.664 290.549 238.342V214.26C290.549 210.938 292.569 209.41 295.065 210.848L319.724 225.085C322.215 226.523 324.235 230.384 324.235 233.71V257.788C324.235 261.098 322.215 262.658 319.724 261.2Z" fill="#848484"/>
<path d="M303.389 251.775V257.792L308.602 260.798V254.781L303.389 251.775Z" fill="black"/>
<path d="M308.603 254.781V260.798L310.709 262.011V255.994L308.603 254.781Z" fill="#D7D7D7"/>
<path d="M275.565 313.223C275.682 311.742 275.038 310.194 273.408 310.974C272.141 311.574 270.566 312.596 271.002 315.711C271.459 318.955 269.981 319.314 268.199 321.622C266.327 324.048 258.361 328.423 261.227 330.591C261.949 331.111 262.799 331.426 263.685 331.504C264.572 331.581 265.463 331.418 266.265 331.031C269.571 329.242 273.814 326.629 276.984 324.793C278.454 323.939 277.534 321.502 276.699 320.297C275.475 318.503 275.471 314.366 275.565 313.223Z" fill="#ECECEC"/>
<path d="M290.819 321.58C290.936 320.098 290.296 318.546 288.662 319.326C287.395 319.93 285.824 320.948 286.26 324.067C286.713 327.308 285.239 327.666 283.453 329.979C281.581 332.4 273.619 336.775 276.485 338.927C277.207 339.449 278.056 339.765 278.943 339.844C279.83 339.922 280.721 339.759 281.523 339.372C284.826 337.582 289.072 334.97 292.242 333.133C293.708 332.283 292.792 329.846 291.957 328.637C290.725 326.855 290.725 322.706 290.819 321.58Z" fill="#ECECEC"/>
<path fill-rule="evenodd" clip-rule="evenodd" d="M275.908 318.472C275.908 318.472 276.379 319.981 277.042 320.644C277.935 321.537 278.727 324.098 277.155 325.26C275.986 326.118 274.601 326.929 273.705 327.031C271.689 327.257 271.962 328.547 270.332 329.604C268.702 330.661 266.9 332.119 263.527 331.628C260.088 331.125 259.628 328.98 261.122 327.491C262.291 326.321 266.737 323.038 268.632 320.433C270.527 317.828 271.139 318.207 272.441 319.337C274.016 320.71 275.034 320.301 275.908 318.472Z" fill="#A1A1A1"/>
<path fill-rule="evenodd" clip-rule="evenodd" d="M291.169 326.824C291.169 326.824 291.641 328.337 292.304 328.996C293.197 329.889 293.988 332.455 292.417 333.613C291.247 334.471 289.863 335.282 288.966 335.383C286.95 335.613 287.227 336.9 285.597 337.956C283.967 339.013 282.166 340.475 278.789 339.984C275.35 339.481 274.89 337.333 276.387 335.847C277.557 334.677 281.998 331.39 283.893 328.785C285.788 326.181 286.4 326.559 287.703 327.694C289.278 329.066 290.3 328.657 291.169 326.824Z" fill="#A1A1A1"/>
<path d="M284.049 239.352C284.135 232.173 286.143 225.759 287.898 220.246C289.403 215.516 290.978 212.646 292.706 211.706C294.842 210.536 296.371 212.061 296.071 214.978C294.991 225.416 289.617 239.43 287.559 241.212C286.529 242.101 285.636 242.729 284.65 241.906C283.917 241.282 284.042 239.91 284.049 239.352Z" fill="#ECECEC"/>
<path d="M315.341 255.16C315.341 255.16 318.156 261.469 319.104 265.36C319.104 265.36 319.907 268.725 319.86 270.866C319.802 273.654 319.318 276.325 317.17 278.099C314.686 280.15 309.437 282.645 306.669 283.729C304.099 284.735 296.699 288.062 292.133 289.446C292.753 291.644 293.11 293.909 293.197 296.191C293.252 299.767 292.92 319.739 292.441 324.348C292.312 325.592 290.452 326.368 288.42 326.224C285.98 326.052 284.56 324.738 284.443 323.927C283.309 316.206 281.25 291.863 280.79 288.604C280.439 286.104 281.811 283.145 283.09 281.78C283.929 280.883 285.059 279.783 286.346 278.594C283.761 279.339 280.068 280.318 276.52 281.179C277.011 283.223 277.85 285.675 277.889 288.089C277.943 291.664 278.017 311.137 277.538 315.746C277.409 316.99 275.331 317.817 273.248 317.571C270.94 317.306 269.681 316.117 269.56 315.306C268.429 307.585 266.631 284.381 265.871 281.456C265.38 279.406 265.696 277.245 266.752 275.42C268.117 272.96 278.785 265.231 282.958 262.779C285.673 261.105 288.473 259.57 291.345 258.182C292.39 253.007 293.571 247.264 293.571 247.264L315.341 255.16Z" fill="#6C6C6C"/>
<path opacity="0.5" d="M286.159 278.696C281 280.173 276.465 281.242 276.465 281.242C276.465 281.242 277.709 285.484 277.791 287.352C277.912 290.101 277.896 293.501 277.873 295.93C277.834 299.475 277.81 311.8 277.483 315.816C277.393 316.897 275.814 317.766 273.626 317.68C273.626 317.68 276.258 298.48 270.507 280.006C269.029 275.252 289.274 269.942 296.191 270.371C296.191 270.371 292.397 273.287 291.169 274.305C289.941 275.323 286.159 278.696 286.159 278.696Z" fill="#595959"/>
<path d="M319.751 226.535C319.751 226.535 318.024 237.063 317.178 240.218C316.62 242.284 314.678 250.317 314.678 250.317C314.678 251.678 317.462 260.357 317.462 260.357C317.462 260.357 310.857 264.019 301.187 261.414C292.998 259.215 291.743 255.9 291.743 255.9C291.743 255.9 292.484 250.652 292.417 247.073C292.378 244.905 290.468 233.971 290.156 231.16C290.156 231.16 286.947 231.043 285.024 229.6C285.446 226.824 286.896 223.93 287.898 220.242C289.302 215.099 291.064 212.186 292.998 211.523C295.693 210.595 304.006 209.421 306.607 210.743C312.534 213.718 319.291 218.191 320.414 220.012C320.414 220.012 321.069 220.585 321.034 222.741C321.015 223.739 319.751 226.535 319.751 226.535Z" fill="#A1A1A1"/>
<path d="M300.75 209.46L308.576 207.066C308.576 207.066 308.455 208.961 308.455 209.772C308.455 211.581 309.897 211.991 310.12 213.282C310.354 214.662 307.254 215.317 304.427 215.231C302.263 215.157 300.336 213.956 299.853 212.868C299.311 211.652 300.781 210.919 300.781 210.735C300.781 210.377 300.75 209.46 300.75 209.46Z" fill="#ECECEC"/>
<path d="M296.118 196.675C296.165 194.466 297.076 192.363 298.655 190.817C300.234 189.272 302.356 188.406 304.565 188.406C306.775 188.406 308.897 189.272 310.476 190.817C312.055 192.363 312.966 194.466 313.013 196.675C313.013 202.352 308.576 207.066 308.576 207.066C308.576 207.066 301.05 209.351 300.185 209.64C297.931 210.396 297.229 209.043 297.018 207.784C296.325 204.123 296.023 200.399 296.118 196.675Z" fill="#ECECEC"/>
<path d="M297.396 188.373L308.147 188.139C310.985 188.139 313.021 190.444 313.021 193.286C313.021 193.286 313.021 196.308 313.021 197.283C312.901 198.737 312.559 200.163 312.007 201.514C311.179 203.54 310.022 205.416 308.583 207.066C308.583 207.066 307.944 204.785 307.948 204.699C307.948 204.699 309.246 202.925 309.383 202.496C309.588 201.584 309.677 200.65 309.648 199.716C309.648 199.279 309.394 198.64 308.731 199.022C308.356 199.289 308.081 199.675 307.952 200.118C307.925 200.187 307.878 200.247 307.815 200.287C307.752 200.328 307.679 200.347 307.604 200.342C307.53 200.337 307.459 200.309 307.402 200.261C307.345 200.212 307.306 200.147 307.289 200.075C306.938 198.445 306.396 196.316 304.559 195.006C303.085 193.953 300.66 193.781 298.558 194.128C297.657 194.28 296.833 194.731 296.219 195.407V189.531C296.222 189.222 296.348 188.926 296.568 188.709C296.789 188.492 297.087 188.371 297.396 188.373Z" fill="black"/>
<path opacity="0.5" d="M317.462 260.357C317.462 260.357 314.62 262.073 309.32 262.362C306.357 262.521 301.198 261.82 298.734 260.654C296.27 259.488 306.029 252.649 307.702 249.506C309.203 246.706 311.991 232.521 312.268 229.495C312.518 226.89 314.409 227.257 314.409 227.257L317.291 239.734C317.291 239.734 314.721 249.221 314.666 250.328C314.596 251.986 316.655 257.624 317.462 260.357Z" fill="#848484"/>
<path opacity="0.5" d="M300.75 209.46L308.576 207.066C308.576 207.066 308.447 209.016 308.459 209.924C308.459 209.924 307.866 209.144 305.519 209.488C303.265 209.823 300.777 210.482 300.777 210.482C300.769 210.131 300.75 209.46 300.75 209.46Z" fill="#D7D7D7"/>
<path d="M71.8791 191.301C73.7078 178.824 71.5827 167.126 70.3194 162.556C69.7657 160.552 68.7012 158.844 67.6211 158.154C66.0614 157.156 64.6849 157.374 64.1819 159.218C63.4294 161.983 63.0355 178.797 66.0302 188.892C66.5683 190.705 67.5509 192.038 68.6271 192.748C69.9957 193.641 71.5866 193.341 71.8791 191.301Z" fill="#A1A1A1"/>
<path d="M68.9313 192.982C72.8305 195.875 78.7067 197.427 82.9686 199.486C84.0838 200.028 85.4017 199.069 86.0256 198.445C86.9887 197.486 88.0688 196.332 86.8054 195.501C82.5514 192.709 75.1077 186.334 68.4789 184.45C67.6133 184.205 66.3109 183.554 65.6754 186.112C65.149 188.225 66.8763 191.454 68.9313 192.982Z" fill="#A1A1A1"/>
<path fill-rule="evenodd" clip-rule="evenodd" d="M86.938 195.591C87.3708 195.86 88.5913 195.298 88.7004 195.275C91.04 194.811 91.6171 196.515 92.9311 197.092C93.9255 197.532 93.8241 198.203 93.672 198.858C93.2819 200.495 92.4276 201.984 91.2116 203.147C89.5076 204.672 86.9965 203.338 85.429 201.88C84.6179 201.124 83.6626 200.215 82.9607 199.478C81.401 198.667 82.6176 197.057 83.1635 196.573C84.9026 195.025 86.0801 195.123 86.938 195.591Z" fill="#A1A1A1"/>
<path d="M22.3855 199.311C25.4503 205.358 37.4717 217.204 38.1346 218.261C39.3317 220.168 40.3689 219.7 40.8641 219.193C41.4763 218.546 41.3086 216.916 40.5872 215.734C38.739 212.693 31.2485 196.675 24.7017 193.29C23.6099 192.725 22.7988 192.37 22.1008 193.317C21.1728 194.55 20.662 195.91 22.3855 199.311Z" fill="#A1A1A1"/>
<path d="M96.7445 184.489C96.7729 184.515 96.795 184.546 96.8092 184.581C96.8234 184.616 96.8293 184.654 96.8264 184.692L93.1845 204.169C93.1705 204.308 93.124 204.442 93.0488 204.56C92.9736 204.678 92.8719 204.776 92.7516 204.847L84.3916 209.628C84.3476 209.66 84.2968 209.68 84.2432 209.688C84.1897 209.696 84.135 209.692 84.0836 209.675C84.043 209.653 84.0098 209.619 83.9883 209.578C83.9668 209.537 83.9579 209.491 83.9627 209.445L87.6046 189.976C87.6185 189.837 87.6645 189.704 87.7389 189.586C87.8134 189.468 87.9143 189.369 88.0335 189.297L96.3974 184.525C96.445 184.484 96.5036 184.459 96.5655 184.453C96.6275 184.447 96.6899 184.46 96.7445 184.489Z" fill="black"/>
<path d="M96.7447 184.489C96.6935 184.455 96.6331 184.436 96.5712 184.436C96.5093 184.436 96.4488 184.455 96.3977 184.489L88.0337 189.262C87.9145 189.334 87.8136 189.433 87.7391 189.551C87.6647 189.668 87.6187 189.802 87.6048 189.941L83.9629 209.41C83.9581 209.456 83.967 209.502 83.9885 209.543C84.01 209.584 84.0432 209.618 84.0838 209.64L83.4911 209.297C83.4607 209.271 83.4367 209.239 83.4212 209.202C83.4056 209.165 83.3988 209.126 83.4014 209.086L87.0433 189.617C87.0572 189.478 87.1032 189.345 87.1776 189.227C87.2521 189.109 87.353 189.01 87.4723 188.938L95.8362 184.166C95.8794 184.134 95.9296 184.114 95.9826 184.106C96.0355 184.097 96.0896 184.102 96.1403 184.119L96.7408 184.47L96.7447 184.489Z" fill="#666666"/>
<path d="M58.7189 287.453C58.5785 285.699 59.3388 283.862 61.2729 284.786C62.7741 285.5 64.6379 286.709 64.1193 290.401C63.5812 294.242 65.332 294.667 67.4415 297.42C69.6602 300.29 79.0964 305.472 75.7001 308.022C74.8451 308.639 73.8393 309.013 72.7891 309.105C71.739 309.197 70.6835 309.003 69.7343 308.544C65.835 306.427 60.7894 303.331 57.0344 301.136C55.2953 300.126 56.3832 297.237 57.3697 295.809C58.828 293.704 58.8319 288.806 58.7189 287.453Z" fill="#ECECEC"/>
<path d="M44.1474 295.47C44.0071 293.716 44.7674 291.879 46.7014 292.803C48.1988 293.517 49.5752 295.572 49.5479 298.418C49.5089 302.294 49.5947 304.298 50.1757 307.706C50.936 312.182 51.4819 312.732 51.5989 315.505C51.7159 318.277 51.5989 320.698 49.8209 321.155C48.6511 321.459 45.945 321.412 44.5802 320.429C40.4392 317.462 42.1471 314.748 42.2407 311.094C42.2758 309.511 41.1606 307.476 42.6072 303.343C42.9192 302.458 44.2527 296.823 44.1474 295.47Z" fill="#ECECEC"/>
<path fill-rule="evenodd" clip-rule="evenodd" d="M42.5798 303.429C42.5798 303.429 41.6245 305.444 41.6167 307.145C41.6167 308.942 42.1392 310.334 41.7181 314.031C41.297 317.727 42.6734 319.158 44.5801 320.449C46.4869 321.739 50.0391 321.537 50.7683 320.796C51.8756 319.688 52.211 317.548 51.8289 315.419C51.4467 313.29 50.1912 307.441 49.8402 305.46C49.4893 303.479 48.3585 302.89 47.1341 302.992C44.3267 303.214 44.701 306.205 43.6521 305.597C42.6032 304.988 42.5798 303.429 42.5798 303.429Z" fill="#A1A1A1"/>
<path fill-rule="evenodd" clip-rule="evenodd" d="M58.2508 293.657C58.2508 293.657 57.6932 295.447 56.9094 296.23C55.8488 297.287 54.913 300.325 56.773 301.689C58.1455 302.703 59.7988 303.662 60.8594 303.783C63.2535 304.056 62.926 305.581 64.8561 306.833C66.8487 308.127 68.9192 309.815 72.9159 309.231C76.9906 308.634 77.5287 306.111 75.7663 304.329C74.382 302.945 69.1141 299.054 66.8721 295.969C64.63 292.885 63.9008 293.329 62.3606 294.675C60.4929 296.308 59.2841 295.825 58.2508 293.657Z" fill="#A1A1A1"/>
<path d="M71.8673 212.486C71.415 208.953 70.9353 204.781 70.2218 201.135L40.8721 209.628L39.8037 212.693C38.9273 215.302 38.5568 218.055 38.7119 220.803C38.9107 226.863 42.5565 234.572 43.6288 237.929C44.9351 242.015 48.308 248.979 50.9478 253.978C50.8698 255.928 48.3976 257.074 46.2452 264.744C45.0989 268.823 42.4825 292.955 43.1804 298.582C43.2779 299.362 44.4009 300.29 46.409 300.188C48.1637 300.102 49.9924 299.124 50.1367 298.161C50.1367 298.161 53.9775 286.12 57.5024 274.625C57.5609 281.585 57.6623 288.272 57.8299 290.787C57.9079 291.957 59.7484 292.526 61.3861 292.347C63.0238 292.167 64.6692 291.306 64.8096 290.343C66.1276 281.374 70.7209 246.952 70.7482 246.437C71.0055 241.485 72.5964 233.928 72.6432 227.432C72.6666 223.751 72.8499 217.427 71.8673 212.486Z" fill="#6C6C6C"/>
<path opacity="0.5" d="M59.4989 220.195C61.3042 226.933 63.5814 249.19 63.1993 254.707C63.0394 257.047 57.4985 274.594 57.4985 274.594C57.4985 274.594 57.6233 287.695 57.8261 290.756C57.9119 292.039 60.2241 292.706 62.435 292.105C62.435 292.105 60.4269 278.126 65.1645 257.339C67.6249 246.558 59.4989 220.195 59.4989 220.195Z" fill="#595959"/>
<path d="M72.1986 173.525C72.1986 173.525 71.8086 168.947 71.3134 166.619C70.8182 164.291 70.0774 158.591 66.5602 157.698C66.0338 157.561 57.7869 156.746 56.0088 156.622C54.1676 156.463 52.3184 156.818 50.6669 157.647C44.9116 160.731 39.9595 163.472 36.8323 165.793C32.1532 169.263 45.6329 194.089 45.6329 197.556C45.6329 200.285 42.1236 206.384 41.0552 209.371C40.3533 211.359 43.0048 214.186 46.635 215.04C53.5016 216.654 63.355 213.293 67.3206 209.581C70.865 206.271 70.2177 200.937 70.2177 200.937C69.4379 196.944 67.7183 193.637 67.4376 191.188C66.9619 187.043 66.3887 182.411 67.8977 180.906C68.7859 180.011 69.4688 178.934 69.899 177.749C70.3293 176.564 70.4966 175.3 70.3893 174.043H70.4127C70.4127 174.043 71.7579 174.039 72.1986 173.525Z" fill="#E9E9E9"/>
<path d="M64.9807 140.822C64.929 138.202 63.8519 135.707 61.9808 133.872C60.1097 132.037 57.5937 131.01 54.9733 131.01C52.3528 131.01 49.8369 132.037 47.9657 133.872C46.0946 135.707 45.0175 138.202 44.9658 140.822C44.9658 147.548 50.222 153.128 50.222 153.128C50.222 153.128 59.1396 155.857 60.1612 156.181C62.8322 157.078 63.6706 155.475 63.9123 153.982C64.7366 149.646 65.0948 145.234 64.9807 140.822Z" fill="#A1A1A1"/>
<path d="M58.7187 155.697L50.2261 153.128C50.2261 153.128 50.3392 155.908 50.3392 156.961C50.3392 158.462 47.5785 159.433 48.0426 160.981C48.4325 162.334 50.6161 163.792 54.2814 163.964C56.3129 164.061 59.2529 162.751 59.8846 161.34C60.5865 159.76 58.6797 158.828 58.6797 158.571C58.6797 158.103 58.7187 155.697 58.7187 155.697Z" fill="#A1A1A1"/>
<path d="M58.7187 155.697L50.2261 153.128C50.2261 153.128 50.3392 155.908 50.3392 156.961C50.3392 158.462 47.5785 159.433 48.0426 160.981C49.3498 159.573 51.0055 158.534 52.8425 157.971C55.1821 157.296 58.6914 157.14 58.6914 157.14C58.6797 156.672 58.7187 155.697 58.7187 155.697Z" fill="#A1A1A1"/>
<path d="M65.8313 137.308C65.4414 134.657 62.1309 131.331 56.9995 130.29C52.9599 129.37 48.3159 130.804 45.6137 135.484C44.5803 137.071 44.0055 138.913 43.9526 140.806C43.9683 142.482 44.2513 144.144 44.7909 145.731C43.6931 146.078 42.7529 146.801 42.1362 147.773C41.5195 148.745 41.266 149.904 41.4203 151.045C41.5747 152.186 42.1269 153.235 42.9797 154.009C43.8325 154.782 44.9311 155.23 46.0816 155.272C47.5048 155.335 48.9319 154.859 50.2382 153.116L50.593 149.579C49.5441 150.683 48.4172 148.472 48.0819 147.63C47.5438 146.292 47.3917 145.197 47.6725 144.12C47.9532 143.044 48.7331 143.048 49.5441 143.516C49.984 143.864 50.3209 144.325 50.5189 144.85C50.5143 145.478 50.5771 146.106 50.7061 146.721C51.2169 150.597 52.0007 150.371 52.6245 152.699C53.6422 156.489 52.0669 158.548 52.0669 158.548C53.6267 157.647 54.0166 155.623 53.8723 152.898C53.7397 150.605 49.1932 145.902 56.0715 143.15C60.7896 141.262 61.9867 138.104 62.2752 136.291C62.2986 136.291 64.8487 138.763 65.0047 141.964C65.772 140.541 66.0618 138.909 65.8313 137.308Z" fill="black"/>
<path opacity="0.5" d="M41.0553 209.371C40.8018 210.03 40.798 212.007 43.5274 213.707C45.8202 215.134 48.5965 215.481 50.8112 215.469C50.8112 215.469 48.7095 214.182 48.7095 209.589C48.7095 206.204 54.6949 188.572 54.6949 188.572C52.6193 188.902 50.4946 188.466 48.7173 187.344C46.4553 185.903 44.6678 183.828 43.5781 181.378C42.7284 179.528 42.1404 177.568 41.8313 175.556L39.3552 181.354L43.0478 190.202C43.0478 190.202 45.633 196.277 45.6993 197.579C45.7968 199.545 42.2017 206.368 41.0553 209.371Z" fill="#D3D3D3"/>
<path d="M89.5233 201.463L89.9679 201.264C89.9163 201.277 89.8627 201.279 89.8104 201.27C89.7581 201.261 89.7082 201.241 89.6636 201.212C89.6191 201.184 89.5809 201.146 89.5514 201.102C89.522 201.058 89.5018 201.008 89.4921 200.956C89.3947 200.683 89.5779 200.445 89.9328 200.262L91.2234 199.607C91.0762 199.613 90.9305 199.575 90.8048 199.498C90.6792 199.421 90.5793 199.308 90.5176 199.174L90.4904 199.112C90.4131 198.938 90.4047 198.741 90.467 198.562C90.5292 198.382 90.6575 198.233 90.8257 198.145L94.335 196.37C94.6431 196.211 94.8575 196.667 94.7951 197.369C94.7327 198.071 95.0057 198.055 95.0252 198.613C95.0447 199.17 94.5846 199.392 94.5846 199.856C94.5846 200.562 94.1946 200.293 94.3194 200.979C94.3857 201.311 94.4169 201.759 93.7111 202.215L90.9427 203.491C90.8508 203.526 90.7529 203.542 90.6546 203.539C90.5564 203.536 90.4597 203.513 90.3701 203.473C90.2806 203.432 90.2 203.374 90.133 203.302C90.0659 203.23 90.0138 203.146 89.9796 203.054L90.0497 203.241C89.9956 203.095 89.9891 202.936 90.0311 202.786C90.0731 202.636 90.1616 202.503 90.2837 202.407L89.999 202.524C89.839 202.587 89.6628 202.597 89.4965 202.553C89.3301 202.509 89.1823 202.412 89.0749 202.278C88.919 201.919 89.1334 201.631 89.5233 201.463Z" fill="#A1A1A1"/>
<path d="M37.5928 217.185C38.786 219.883 40.6381 224.203 41.882 225.533C42.5995 226.159 43.4166 226.661 44.2995 227.019C44.666 227.062 45.8592 227.019 46.4714 227.101C47.2135 227.269 47.942 227.491 48.6511 227.767C48.8148 227.804 48.9862 227.788 49.1396 227.719C49.293 227.651 49.4204 227.536 49.5027 227.389C49.5851 227.243 49.618 227.074 49.5967 226.907C49.5753 226.741 49.5008 226.586 49.3841 226.465C48.5042 225.782 47.7302 224.973 47.0875 224.063C46.6975 223.49 45.6603 221.334 45.6603 221.334L47.185 223.104C48.6472 224.812 49.8637 223.451 49.8637 223.451C49.8637 223.451 46.1439 218.811 45.75 218.46C44.7947 217.61 41.6987 216.666 40.5835 215.73C40.1468 215.34 39.3124 214.171 38.5052 214.171C37.1873 214.159 37.1756 216.257 37.5928 217.185Z" fill="#A1A1A1"/>
<path d="M286.981 242.308C280.442 247.209 267.095 252.578 266.194 252.867C265.086 253.222 264.927 252.383 264.817 251.873C264.677 251.217 265.168 249.533 266.26 248.679C268.494 246.944 281.514 236.626 287.398 235.254C288.548 234.985 289.32 235.5 289.515 236.841C289.71 238.182 289.102 240.721 286.981 242.308Z" fill="#ECECEC"/>
<path d="M259.378 251.592C260.408 251.139 262.498 250.453 263.047 250.208C263.894 249.818 265.777 249.01 266.26 248.679C266.88 248.25 267.851 248.289 267.918 249.732C267.929 250.228 267.839 250.721 267.653 251.181C267.468 251.641 267.19 252.058 266.837 252.407C266.568 252.672 265.668 253.346 265.668 253.346C265.668 253.346 265.551 255.417 265.075 256.24C264.441 257.228 263.602 258.068 262.615 258.704C262.486 258.782 262.045 258.213 262.334 257.534C262.537 257.059 262.794 257.215 263.504 256.045C264.213 254.875 262.077 255.6 261.683 255.83C261.211 256.107 260.267 256.61 259.955 257.117C259.725 257.472 259.269 258.369 259.113 258.677C258.723 259.457 257.912 258.911 257.982 258.716C258.257 258.003 258.578 257.309 258.942 256.637C259.164 256.248 259.417 255.904 259.522 255.709C259.524 255.703 259.524 255.697 259.522 255.691C259.52 255.685 259.516 255.679 259.511 255.676C259.506 255.672 259.5 255.67 259.494 255.669C259.487 255.669 259.481 255.671 259.476 255.674C259.082 255.973 258.703 256.292 258.341 256.63C257.915 257.077 257.567 257.592 257.312 258.154C257.007 258.907 256.177 258.544 256.251 258.267C256.484 257.511 256.838 256.797 257.3 256.154C257.748 255.538 258.22 254.984 258.423 254.715C258.442 254.692 258.423 254.664 258.388 254.68C257.879 255.058 257.39 255.461 256.922 255.889C256.473 256.327 256.061 256.802 255.69 257.308C255.335 257.905 254.52 257.573 254.66 257.265C255.161 256.388 255.755 255.567 256.43 254.816C256.43 254.816 256.489 253.869 256.699 253.647C257.928 252.415 258.602 251.927 259.378 251.592Z" fill="#ECECEC"/>
<path d="M328.349 345.092L284.802 370.235L287.906 372.024L331.456 346.886L328.349 345.092Z" fill="#848484"/>
<path d="M331.456 350.473L287.909 375.623L287.905 372.024L331.456 346.886V350.473Z" fill="#BEBEBE"/>
<path d="M297.236 366.628V298.122L300.348 296.328V364.834L297.236 366.628Z" fill="#BEBEBE"/>
<path d="M294.129 364.834V299.919L297.237 298.122V366.628L294.129 364.834Z" fill="#848484"/>
<path d="M284.802 370.235L287.906 372.024L287.909 375.623L284.802 373.826V370.235Z" fill="#848484"/>
<path d="M235.032 291.216L191.485 316.358L194.589 318.148L238.139 293.01L235.032 291.216Z" fill="#848484"/>
<path d="M238.14 296.597L194.593 321.747L194.589 318.148L238.14 293.01V296.597Z" fill="#BEBEBE"/>
<path d="M203.923 312.767V248.149L207.031 246.355V310.974L203.923 312.767Z" fill="#BEBEBE"/>
<path d="M200.812 310.974V249.946L203.924 248.149V312.767L200.812 310.974Z" fill="#848484"/>
<path d="M191.485 316.358L194.589 318.148L194.593 321.747L191.485 319.95V316.358Z" fill="#848484"/>
<path d="M191.485 251.701V255.312L284.802 309.188V305.577L191.485 251.701Z" fill="black"/>
<path d="M241.251 222.967L191.485 251.701L284.802 305.577L334.568 276.843L241.251 222.967Z" fill="#848484"/>
<path d="M334.568 280.427L284.802 309.188V305.577L334.568 276.843V280.427Z" fill="#D7D7D7"/>
<path d="M293.084 260.537C293.08 260.496 293.065 260.457 293.041 260.423C293.017 260.39 292.985 260.363 292.947 260.346L264.608 243.969C264.504 243.915 264.389 243.887 264.272 243.887C264.156 243.887 264.041 243.915 263.937 243.969L253.409 250.052C253.37 250.068 253.337 250.095 253.313 250.13C253.289 250.164 253.275 250.205 253.272 250.247V250.785C253.278 250.823 253.294 250.858 253.317 250.889C253.34 250.92 253.37 250.944 253.405 250.96L253.736 251.151L281.757 267.337C281.861 267.389 281.975 267.416 282.092 267.416C282.208 267.416 282.323 267.389 282.427 267.337L292.663 261.41L292.936 261.254C292.973 261.238 293.005 261.211 293.029 261.179C293.053 261.146 293.068 261.107 293.072 261.067V260.533L293.084 260.537Z" fill="#848484"/>
<path opacity="0.7" d="M292.948 260.736L292.675 260.895L282.439 266.818C282.335 266.87 282.22 266.897 282.104 266.897C281.988 266.897 281.873 266.87 281.769 266.818L253.756 250.625L253.425 250.434C253.383 250.422 253.345 250.396 253.319 250.361C253.292 250.326 253.278 250.283 253.278 250.239C253.278 250.195 253.292 250.152 253.319 250.117C253.345 250.081 253.383 250.056 253.425 250.044L263.953 243.961C264.057 243.907 264.172 243.879 264.288 243.879C264.405 243.879 264.52 243.907 264.624 243.961L292.963 260.338C293.135 260.455 293.135 260.63 292.948 260.736Z" fill="#BEBEBE"/>
<path opacity="0.7" d="M292.647 260.525L282.408 266.452C282.304 266.504 282.189 266.531 282.073 266.531C281.956 266.531 281.842 266.504 281.737 266.452L253.729 250.258L263.965 244.331C264.069 244.278 264.185 244.25 264.302 244.25C264.419 244.25 264.535 244.278 264.639 244.331L292.647 260.525Z" fill="#BEBEBE"/>
<path d="M262.916 245.782L264.085 245.103L290.963 260.65L289.793 261.324L262.916 245.782Z" fill="white"/>
<path d="M261.126 246.835L262.296 246.156L289.173 261.703L288 262.381L261.126 246.835Z" fill="white"/>
<path d="M259.332 247.891L260.502 247.213L287.379 262.759L286.21 263.438L259.332 247.891Z" fill="white"/>
<path d="M257.542 248.944L258.712 248.27L283.059 262.33L281.889 263.009L257.542 248.944Z" fill="white"/>
<path d="M280.255 264.483L281.425 263.804L283.422 264.997L282.252 265.676L280.255 264.483Z" fill="white"/>
<path d="M282.349 263.352L283.519 262.677L285.519 263.871L284.346 264.545L282.349 263.352Z" fill="white"/>
<path d="M277.787 263.036L278.961 262.362L280.957 263.555L279.784 264.229L277.787 263.036Z" fill="white"/>
<path d="M275.323 261.593L276.493 260.915L278.489 262.108L277.319 262.783L275.323 261.593Z" fill="white"/>
<path d="M272.855 260.147L274.025 259.468L276.025 260.661L274.851 261.34L272.855 260.147Z" fill="white"/>
<path d="M270.391 258.704L271.56 258.026L273.557 259.219L272.383 259.893L270.391 258.704Z" fill="white"/>
<path d="M267.922 257.257L269.092 256.579L271.092 257.772L269.918 258.447L267.922 257.257Z" fill="white"/>
<path d="M265.454 255.811L266.623 255.132L268.624 256.325L267.45 257.004L265.454 255.811Z" fill="white"/>
<path d="M262.989 254.368L264.159 253.69L266.155 254.883L264.986 255.557L262.989 254.368Z" fill="white"/>
<path d="M260.521 252.921L261.691 252.243L263.692 253.436L262.518 254.115L260.521 252.921Z" fill="white"/>
<path d="M258.057 251.475L259.226 250.796L261.223 251.99L260.049 252.668L258.057 251.475Z" fill="white"/>
<path d="M255.589 250.028L256.759 249.354L258.759 250.543L257.585 251.221L255.589 250.028Z" fill="white"/>
<path d="M228.536 245.111L226.871 246.078V250.539C226.87 251.123 227.023 251.697 227.315 252.203C227.606 252.708 228.026 253.129 228.532 253.421L275.155 280.325C275.327 280.428 275.523 280.482 275.722 280.482C275.922 280.482 276.118 280.428 276.29 280.325L277.931 279.382C278.098 279.284 278.236 279.145 278.332 278.977C278.428 278.809 278.478 278.62 278.477 278.426V273.747L228.536 245.111Z" fill="#ECECEC"/>
<path d="M226.871 250.547C226.87 251.131 227.023 251.705 227.315 252.21C227.606 252.716 228.026 253.136 228.532 253.428L275.155 280.333C275.896 280.758 276.645 280.224 276.645 279.37V274.804L226.871 246.086V250.547Z" fill="black"/>
<path d="M278.489 239.695C278.489 238.159 278.165 237.383 276.645 236.498L230.329 209.764C230.163 209.67 229.974 209.623 229.784 209.63C229.593 209.637 229.408 209.697 229.249 209.803L227.428 210.852C227.256 210.948 227.113 211.089 227.014 211.259C226.914 211.429 226.862 211.622 226.863 211.819V246.086L276.637 274.82L278.481 273.755L278.489 239.695Z" fill="#A1A1A1"/>
<path d="M275.156 237.773L228.532 210.868C228.363 210.771 228.172 210.72 227.977 210.72C227.782 210.72 227.591 210.772 227.422 210.87C227.253 210.967 227.113 211.107 227.016 211.276C226.919 211.445 226.867 211.636 226.867 211.831V246.098L276.641 274.831V240.771C276.645 239.262 276.189 238.369 275.156 237.773Z" fill="black"/>
<path d="M241.294 271.209L247.505 267.606L259.917 274.777L253.701 278.372L241.294 271.209Z" fill="#FCFCFC"/>
<path d="M254.314 255.413V278.021L259.917 274.777V276.847L253.702 280.446V255.764L254.314 255.413Z" fill="#D7D7D7"/>
<path d="M241.294 248.601V273.279L253.701 280.446V255.764L241.294 248.601Z" fill="#ECECEC"/>
<path d="M254.333 253.479L253.701 255.764L241.294 248.601L243.068 246.944L254.333 253.479Z" fill="#FCFCFC"/>
<path d="M253.702 255.764L254.333 253.479L254.626 253.881L254.314 255.413L253.702 255.764Z" fill="#ECECEC"/>
<path d="M289.493 269.454C291.52 269.454 293.224 270.675 293.782 271.755C294.527 273.194 288.062 275.939 286.97 276.103C285.586 276.317 282.291 274.582 282.314 273.588C282.345 271.965 287.461 269.454 289.493 269.454Z" fill="white"/>
<path d="M293.785 271.755C294.53 273.194 288.038 275.818 286.973 276.103C286.295 276.286 285.129 275.884 284.123 275.323C287.601 275.139 291.142 273.892 293.633 271.521C293.688 271.596 293.739 271.674 293.785 271.755Z" fill="#FCFCFC"/>
<path d="M315.017 258.918C310.529 263.028 294.464 269.79 293.571 270.098C293.443 270.147 293.305 270.167 293.167 270.155C293.03 270.143 292.898 270.1 292.78 270.029C292.662 269.958 292.562 269.86 292.488 269.745C292.413 269.629 292.366 269.497 292.351 269.361C292.26 268.811 292.296 268.248 292.457 267.715C292.618 267.181 292.899 266.692 293.279 266.284C295.306 264.19 307.819 254.711 314.919 252.278C316.046 251.888 316.943 252.711 317.017 254.134C317.158 256.481 315.68 258.322 315.017 258.918Z" fill="#ECECEC"/>
<path d="M294.043 265.84C294.433 265.653 295.213 265.411 295.462 266.456C295.712 267.501 294.936 268.869 294.32 269.446C293.79 269.942 293.68 270.667 292.893 271.26C292.122 271.847 291.215 272.23 290.257 272.375C289.6 273.263 289.007 274.198 288.483 275.171C288.147 275.814 287.598 275.56 287.703 275.26C287.82 274.894 288.335 273.088 288.483 272.457C288.486 272.442 288.484 272.427 288.478 272.413C288.472 272.399 288.462 272.387 288.45 272.379C288.437 272.371 288.422 272.367 288.407 272.368C288.392 272.369 288.378 272.374 288.366 272.383C288.045 272.607 287.742 272.855 287.457 273.123C287.122 273.629 286.824 274.158 286.564 274.707C286.237 275.44 285.578 275.284 285.632 275.073C285.764 274.42 285.943 273.778 286.167 273.151C286.342 272.866 286.779 271.961 286.779 271.961C286.782 271.955 286.783 271.947 286.781 271.94C286.779 271.933 286.775 271.926 286.768 271.922C286.762 271.918 286.755 271.916 286.748 271.917C286.74 271.918 286.733 271.921 286.728 271.926C286.356 272.18 286.006 272.463 285.679 272.773C285.358 273.011 285.113 273.338 284.973 273.712C284.704 274.399 284.026 274.102 284.104 273.876C284.254 273.39 284.446 272.918 284.677 272.465C284.856 272.199 285.457 271.525 285.457 271.525C285.463 271.516 285.467 271.506 285.467 271.495C285.466 271.485 285.463 271.474 285.456 271.466C285.449 271.458 285.44 271.452 285.429 271.45C285.419 271.448 285.408 271.45 285.398 271.455C285.398 271.455 284.533 271.891 284.229 272.024C283.406 272.375 282.942 271.965 283.16 271.794C284.147 271.014 286.319 269.111 287.551 268.522C288.549 268.051 292.733 266.479 294.043 265.84Z" fill="#ECECEC"/>
<path d="M26.8191 201.272C32.976 194.737 36.9572 186.486 41.4686 175.755C42.229 173.954 41.9131 169.462 40.5757 167.263C39.1252 164.872 37.3744 164.923 35.9824 166.818C34.2862 169.126 24.8695 184.645 21.6292 193.793C21.316 194.708 21.2212 195.684 21.3526 196.642C21.4839 197.6 21.8377 198.514 22.3857 199.311C24.0155 201.829 25.778 202.371 26.8191 201.272Z" fill="#A1A1A1"/>
<path d="M27.8914 180.033C27.8914 180.033 28.2306 182.088 31.233 183.858C34.6215 185.858 37.4718 184.747 37.4718 184.747C39.2265 182.154 40.4158 178.898 41.8858 175.135C43.1336 171.926 41.8546 167.727 40.1818 166.253C38.9107 165.145 37.3393 164.553 35.6548 167.11C34.2588 169.239 30.1958 175.63 27.8914 180.033Z" fill="#E9E9E9"/>
<path d="M312.092 256.006C310.416 247.002 310.077 227.046 316.795 220.328C317.875 219.247 319.298 218.947 320.047 219.614C320.384 219.935 320.648 220.325 320.819 220.758C320.99 221.191 321.064 221.656 321.037 222.121C321.037 237.987 319.088 248.153 317.47 254.657C317.021 256.442 315.352 258.326 314.35 258.462C312.81 258.673 312.334 257.296 312.092 256.006Z" fill="#ECECEC"/>
<path d="M320.273 238.346C318.887 238.927 317.379 239.159 315.883 239.021C314.305 238.893 312.747 238.592 311.235 238.124C311.235 238.124 311.753 230.544 312.537 227.986C314.3 222.289 316.265 217.805 318.971 218.912C321.377 219.891 321.1 221.684 321.049 225.342C320.983 229.787 320.273 238.346 320.273 238.346Z" fill="#A1A1A1"/>
<defs>
<linearGradient id="paint0_linear_18:104" x1="161.924" y1="128.787" x2="152.794" y2="144.674" gradientUnits="userSpaceOnUse">
<stop stop-color="#A45DFF"/>
<stop offset="1" stop-color="#FB94FF"/>
</linearGradient>
<linearGradient id="paint1_linear_18:104" x1="5520.62" y1="-3690.41" x2="5520.62" y2="-3493.77" gradientUnits="userSpaceOnUse">
<stop stop-color="#A45DFF"/>
<stop offset="1" stop-color="#FB94FF"/>
</linearGradient>
<linearGradient id="paint2_linear_18:104" x1="1643.7" y1="-1562.66" x2="1643.7" y2="-1475.74" gradientUnits="userSpaceOnUse">
<stop stop-color="#A45DFF"/>
<stop offset="1" stop-color="#FB94FF"/>
</linearGradient>
<linearGradient id="paint3_linear_18:104" x1="4054.97" y1="-2831.48" x2="4054.97" y2="-2678.95" gradientUnits="userSpaceOnUse">
<stop stop-color="#A45DFF"/>
<stop offset="1" stop-color="#FB94FF"/>
</linearGradient>
<linearGradient id="paint4_linear_18:104" x1="1682.8" y1="-1558.57" x2="1682.8" y2="-1471.64" gradientUnits="userSpaceOnUse">
<stop stop-color="#A45DFF"/>
<stop offset="1" stop-color="#FB94FF"/>
</linearGradient>
<linearGradient id="paint5_linear_18:104" x1="6840.46" y1="-4381.4" x2="6840.46" y2="-4148.01" gradientUnits="userSpaceOnUse">
<stop stop-color="#A45DFF"/>
<stop offset="1" stop-color="#FB94FF"/>
</linearGradient>
<linearGradient id="paint6_linear_18:104" x1="6209.15" y1="-3957.1" x2="6209.15" y2="-3745.39" gradientUnits="userSpaceOnUse">
<stop stop-color="#A45DFF"/>
<stop offset="1" stop-color="#FB94FF"/>
</linearGradient>
<linearGradient id="paint7_linear_18:104" x1="4130.15" y1="-2811.02" x2="4130.15" y2="-2658.3" gradientUnits="userSpaceOnUse">
<stop stop-color="#A45DFF"/>
<stop offset="1" stop-color="#FB94FF"/>
</linearGradient>
<linearGradient id="paint8_linear_18:104" x1="7285.23" y1="-4373.64" x2="7285.23" y2="-4140.25" gradientUnits="userSpaceOnUse">
<stop stop-color="#A45DFF"/>
<stop offset="1" stop-color="#FB94FF"/>
</linearGradient>
<linearGradient id="paint9_linear_18:104" x1="5689.13" y1="-3682.93" x2="5689.13" y2="-3486.3" gradientUnits="userSpaceOnUse">
<stop stop-color="#A45DFF"/>
<stop offset="1" stop-color="#FB94FF"/>
</linearGradient>
<linearGradient id="paint10_linear_18:104" x1="1643.8" y1="-1560.21" x2="1643.8" y2="-1473.28" gradientUnits="userSpaceOnUse">
<stop stop-color="#A45DFF"/>
<stop offset="1" stop-color="#FB94FF"/>
</linearGradient>
<linearGradient id="paint11_linear_18:104" x1="3978.16" y1="-2833.13" x2="3978.16" y2="-2680.6" gradientUnits="userSpaceOnUse">
<stop stop-color="#A45DFF"/>
<stop offset="1" stop-color="#FB94FF"/>
</linearGradient>
<linearGradient id="paint12_linear_18:104" x1="1608.55" y1="-1564.3" x2="1608.55" y2="-1477.38" gradientUnits="userSpaceOnUse">
<stop stop-color="#A45DFF"/>
<stop offset="1" stop-color="#FB94FF"/>
</linearGradient>
<linearGradient id="paint13_linear_18:104" x1="5920.25" y1="-3677.19" x2="5920.25" y2="-3480.55" gradientUnits="userSpaceOnUse">
<stop stop-color="#A45DFF"/>
<stop offset="1" stop-color="#FB94FF"/>
</linearGradient>
<linearGradient id="paint14_linear_18:104" x1="1721.89" y1="-1550.91" x2="1721.89" y2="-1464.17" gradientUnits="userSpaceOnUse">
<stop stop-color="#A45DFF"/>
<stop offset="1" stop-color="#FB94FF"/>
</linearGradient>
<linearGradient id="paint15_linear_18:104" x1="4144.86" y1="-2827.39" x2="4144.86" y2="-2674.86" gradientUnits="userSpaceOnUse">
<stop stop-color="#A45DFF"/>
<stop offset="1" stop-color="#FB94FF"/>
</linearGradient>
<linearGradient id="paint16_linear_18:104" x1="4315.3" y1="-2819.61" x2="4315.3" y2="-2667.08" gradientUnits="userSpaceOnUse">
<stop stop-color="#A45DFF"/>
<stop offset="1" stop-color="#FB94FF"/>
</linearGradient>
<linearGradient id="paint17_linear_18:104" x1="5865.31" y1="-3660.47" x2="5865.31" y2="-3463.84" gradientUnits="userSpaceOnUse">
<stop stop-color="#A45DFF"/>
<stop offset="1" stop-color="#FB94FF"/>
</linearGradient>
<linearGradient id="paint18_linear_18:104" x1="1704.55" y1="-1537.75" x2="1704.55" y2="-1450.82" gradientUnits="userSpaceOnUse">
<stop stop-color="#A45DFF"/>
<stop offset="1" stop-color="#FB94FF"/>
</linearGradient>
<linearGradient id="paint19_linear_18:104" x1="4275.48" y1="-2802.9" x2="4275.48" y2="-2650.37" gradientUnits="userSpaceOnUse">
<stop stop-color="#A45DFF"/>
<stop offset="1" stop-color="#FB94FF"/>
</linearGradient>
<linearGradient id="paint20_linear_18:104" x1="5520.62" y1="-3686.31" x2="5520.62" y2="-3489.68" gradientUnits="userSpaceOnUse">
<stop stop-color="#A45DFF"/>
<stop offset="1" stop-color="#FB94FF"/>
</linearGradient>
<linearGradient id="paint21_linear_18:104" x1="3863.28" y1="-2743.36" x2="3863.28" y2="-2595.24" gradientUnits="userSpaceOnUse">
<stop stop-color="#A45DFF"/>
<stop offset="1" stop-color="#FB94FF"/>
</linearGradient>
<linearGradient id="paint22_linear_18:104" x1="5813.87" y1="-3733.37" x2="5813.87" y2="-3533.98" gradientUnits="userSpaceOnUse">
<stop stop-color="#A45DFF"/>
<stop offset="1" stop-color="#FB94FF"/>
</linearGradient>
<linearGradient id="paint23_linear_18:104" x1="5689.13" y1="-3668.47" x2="5689.13" y2="-3471.84" gradientUnits="userSpaceOnUse">
<stop stop-color="#A45DFF"/>
<stop offset="1" stop-color="#FB94FF"/>
</linearGradient>
<linearGradient id="paint24_linear_18:104" x1="1643.8" y1="-1542.2" x2="1643.8" y2="-1455.46" gradientUnits="userSpaceOnUse">
<stop stop-color="#A45DFF"/>
<stop offset="1" stop-color="#FB94FF"/>
</linearGradient>
<linearGradient id="paint25_linear_18:104" x1="3978.16" y1="-2818.68" x2="3978.16" y2="-2666.15" gradientUnits="userSpaceOnUse">
<stop stop-color="#A45DFF"/>
<stop offset="1" stop-color="#FB94FF"/>
</linearGradient>
<linearGradient id="paint26_linear_18:104" x1="4144.81" y1="-2810.91" x2="4144.81" y2="-2658.38" gradientUnits="userSpaceOnUse">
<stop stop-color="#A45DFF"/>
<stop offset="1" stop-color="#FB94FF"/>
</linearGradient>
<linearGradient id="paint27_linear_18:104" x1="1608.55" y1="-1549.85" x2="1608.55" y2="-1462.93" gradientUnits="userSpaceOnUse">
<stop stop-color="#A45DFF"/>
<stop offset="1" stop-color="#FB94FF"/>
</linearGradient>
<linearGradient id="paint28_linear_18:104" x1="5520.62" y1="-3671.86" x2="5520.62" y2="-3475.23" gradientUnits="userSpaceOnUse">
<stop stop-color="#A45DFF"/>
<stop offset="1" stop-color="#FB94FF"/>
</linearGradient>
<linearGradient id="paint29_linear_18:104" x1="3863.28" y1="-2728.9" x2="3863.28" y2="-2580.78" gradientUnits="userSpaceOnUse">
<stop stop-color="#A45DFF"/>
<stop offset="1" stop-color="#FB94FF"/>
</linearGradient>
<linearGradient id="paint30_linear_18:104" x1="5813.87" y1="-3722.48" x2="5813.87" y2="-3522.9" gradientUnits="userSpaceOnUse">
<stop stop-color="#A45DFF"/>
<stop offset="1" stop-color="#FB94FF"/>
</linearGradient>
<linearGradient id="paint31_linear_18:104" x1="5879.34" y1="-3670.78" x2="5879.34" y2="-3473.96" gradientUnits="userSpaceOnUse">
<stop stop-color="#A45DFF"/>
<stop offset="1" stop-color="#FB94FF"/>
</linearGradient>
<linearGradient id="paint32_linear_18:104" x1="4113.59" y1="-2724.26" x2="4113.59" y2="-2576.14" gradientUnits="userSpaceOnUse">
<stop stop-color="#A45DFF"/>
<stop offset="1" stop-color="#FB94FF"/>
</linearGradient>
<linearGradient id="paint33_linear_18:104" x1="6178.76" y1="-3717.84" x2="6178.76" y2="-3518.27" gradientUnits="userSpaceOnUse">
<stop stop-color="#A45DFF"/>
<stop offset="1" stop-color="#FB94FF"/>
</linearGradient>
<linearGradient id="paint34_linear_18:104" x1="4243.53" y1="-2940.14" x2="4243.53" y2="-2781.73" gradientUnits="userSpaceOnUse">
<stop stop-color="#A45DFF"/>
<stop offset="1" stop-color="#FB94FF"/>
</linearGradient>
<linearGradient id="paint35_linear_18:104" x1="3978.16" y1="-2832.6" x2="3978.16" y2="-2679.88" gradientUnits="userSpaceOnUse">
<stop stop-color="#A45DFF"/>
<stop offset="1" stop-color="#FB94FF"/>
</linearGradient>
<linearGradient id="paint36_linear_18:104" x1="1608.55" y1="-1556.65" x2="1608.55" y2="-1469.91" gradientUnits="userSpaceOnUse">
<stop stop-color="#A45DFF"/>
<stop offset="1" stop-color="#FB94FF"/>
</linearGradient>
<linearGradient id="paint37_linear_18:104" x1="4403.51" y1="-2929.62" x2="4403.51" y2="-2771.4" gradientUnits="userSpaceOnUse">
<stop stop-color="#A45DFF"/>
<stop offset="1" stop-color="#FB94FF"/>
</linearGradient>
<linearGradient id="paint38_linear_18:104" x1="4126.85" y1="-2822.07" x2="4126.85" y2="-2669.54" gradientUnits="userSpaceOnUse">
<stop stop-color="#A45DFF"/>
<stop offset="1" stop-color="#FB94FF"/>
</linearGradient>
<linearGradient id="paint39_linear_18:104" x1="1671.07" y1="-1553.25" x2="1671.07" y2="-1466.32" gradientUnits="userSpaceOnUse">
<stop stop-color="#A45DFF"/>
<stop offset="1" stop-color="#FB94FF"/>
</linearGradient>
<linearGradient id="paint40_linear_18:104" x1="4359.24" y1="-2927.89" x2="4359.24" y2="-2769.48" gradientUnits="userSpaceOnUse">
<stop stop-color="#A45DFF"/>
<stop offset="1" stop-color="#FB94FF"/>
</linearGradient>
<linearGradient id="paint41_linear_18:104" x1="4519.26" y1="-2917.37" x2="4519.26" y2="-2759.14" gradientUnits="userSpaceOnUse">
<stop stop-color="#A45DFF"/>
<stop offset="1" stop-color="#FB94FF"/>
</linearGradient>
<linearGradient id="paint42_linear_18:104" x1="4237.17" y1="-2809.82" x2="4237.17" y2="-2657.29" gradientUnits="userSpaceOnUse">
<stop stop-color="#A45DFF"/>
<stop offset="1" stop-color="#FB94FF"/>
</linearGradient>
<linearGradient id="paint43_linear_18:104" x1="1719.02" y1="-1541" x2="1719.02" y2="-1454.08" gradientUnits="userSpaceOnUse">
<stop stop-color="#A45DFF"/>
<stop offset="1" stop-color="#FB94FF"/>
</linearGradient>
<linearGradient id="paint44_linear_18:104" x1="4474.81" y1="-2932.13" x2="4474.81" y2="-2773.72" gradientUnits="userSpaceOnUse">
<stop stop-color="#A45DFF"/>
<stop offset="1" stop-color="#FB94FF"/>
</linearGradient>
<linearGradient id="paint45_linear_18:104" x1="4194.8" y1="-2824.58" x2="4194.8" y2="-2671.86" gradientUnits="userSpaceOnUse">
<stop stop-color="#A45DFF"/>
<stop offset="1" stop-color="#FB94FF"/>
</linearGradient>
<linearGradient id="paint46_linear_18:104" x1="1704.55" y1="-1552.2" x2="1704.55" y2="-1465.27" gradientUnits="userSpaceOnUse">
<stop stop-color="#A45DFF"/>
<stop offset="1" stop-color="#FB94FF"/>
</linearGradient>
<linearGradient id="paint47_linear_18:104" x1="5520.62" y1="-3677.06" x2="5520.62" y2="-3480.42" gradientUnits="userSpaceOnUse">
<stop stop-color="#A45DFF"/>
<stop offset="1" stop-color="#FB94FF"/>
</linearGradient>
<linearGradient id="paint48_linear_18:104" x1="1643.7" y1="-1549.3" x2="1643.7" y2="-1462.38" gradientUnits="userSpaceOnUse">
<stop stop-color="#A45DFF"/>
<stop offset="1" stop-color="#FB94FF"/>
</linearGradient>
<linearGradient id="paint49_linear_18:104" x1="4054.97" y1="-2821.69" x2="4054.97" y2="-2668.97" gradientUnits="userSpaceOnUse">
<stop stop-color="#A45DFF"/>
<stop offset="1" stop-color="#FB94FF"/>
</linearGradient>
<linearGradient id="paint50_linear_18:104" x1="1682.8" y1="-1541.65" x2="1682.8" y2="-1454.91" gradientUnits="userSpaceOnUse">
<stop stop-color="#A45DFF"/>
<stop offset="1" stop-color="#FB94FF"/>
</linearGradient>
<linearGradient id="paint51_linear_18:104" x1="5689.13" y1="-3677.21" x2="5689.13" y2="-3480.39" gradientUnits="userSpaceOnUse">
<stop stop-color="#A45DFF"/>
<stop offset="1" stop-color="#FB94FF"/>
</linearGradient>
<linearGradient id="paint52_linear_18:104" x1="1643.8" y1="-1550.92" x2="1643.8" y2="-1463.99" gradientUnits="userSpaceOnUse">
<stop stop-color="#A45DFF"/>
<stop offset="1" stop-color="#FB94FF"/>
</linearGradient>
<linearGradient id="paint53_linear_18:104" x1="3978.16" y1="-2823.84" x2="3978.16" y2="-2671.31" gradientUnits="userSpaceOnUse">
<stop stop-color="#A45DFF"/>
<stop offset="1" stop-color="#FB94FF"/>
</linearGradient>
<linearGradient id="paint54_linear_18:104" x1="4144.81" y1="-2816.07" x2="4144.81" y2="-2663.54" gradientUnits="userSpaceOnUse">
<stop stop-color="#A45DFF"/>
<stop offset="1" stop-color="#FB94FF"/>
</linearGradient>
<linearGradient id="paint55_linear_18:104" x1="1608.55" y1="-1555.01" x2="1608.55" y2="-1468.09" gradientUnits="userSpaceOnUse">
<stop stop-color="#A45DFF"/>
<stop offset="1" stop-color="#FB94FF"/>
</linearGradient>
<linearGradient id="paint56_linear_18:104" x1="5989.09" y1="-3665.65" x2="5989.09" y2="-3469.02" gradientUnits="userSpaceOnUse">
<stop stop-color="#A45DFF"/>
<stop offset="1" stop-color="#FB94FF"/>
</linearGradient>
<linearGradient id="paint57_linear_18:104" x1="1739.6" y1="-1542.93" x2="1739.6" y2="-1456.01" gradientUnits="userSpaceOnUse">
<stop stop-color="#A45DFF"/>
<stop offset="1" stop-color="#FB94FF"/>
</linearGradient>
<linearGradient id="paint58_linear_18:104" x1="4194.8" y1="-2819.4" x2="4194.8" y2="-2666.69" gradientUnits="userSpaceOnUse">
<stop stop-color="#A45DFF"/>
<stop offset="1" stop-color="#FB94FF"/>
</linearGradient>
<linearGradient id="paint59_linear_18:104" x1="1700.6" y1="-1547.02" x2="1700.6" y2="-1460.1" gradientUnits="userSpaceOnUse">
<stop stop-color="#A45DFF"/>
<stop offset="1" stop-color="#FB94FF"/>
</linearGradient>
<linearGradient id="paint60_linear_18:104" x1="5520.62" y1="-3681.15" x2="5520.62" y2="-3484.51" gradientUnits="userSpaceOnUse">
<stop stop-color="#A45DFF"/>
<stop offset="1" stop-color="#FB94FF"/>
</linearGradient>
<linearGradient id="paint61_linear_18:104" x1="3863.28" y1="-2738.17" x2="3863.28" y2="-2590.05" gradientUnits="userSpaceOnUse">
<stop stop-color="#A45DFF"/>
<stop offset="1" stop-color="#FB94FF"/>
</linearGradient>
<linearGradient id="paint62_linear_18:104" x1="5813.87" y1="-3728.19" x2="5813.87" y2="-3528.8" gradientUnits="userSpaceOnUse">
<stop stop-color="#A45DFF"/>
<stop offset="1" stop-color="#FB94FF"/>
</linearGradient>
<linearGradient id="paint63_linear_18:104" x1="4055.83" y1="-2736.29" x2="4055.83" y2="-2588.17" gradientUnits="userSpaceOnUse">
<stop stop-color="#A45DFF"/>
<stop offset="1" stop-color="#FB94FF"/>
</linearGradient>
<linearGradient id="paint64_linear_18:104" x1="6094.51" y1="-3726.3" x2="6094.51" y2="-3526.91" gradientUnits="userSpaceOnUse">
<stop stop-color="#A45DFF"/>
<stop offset="1" stop-color="#FB94FF"/>
</linearGradient>
<linearGradient id="paint65_linear_18:104" x1="266.136" y1="147.544" x2="403" y2="147.544" gradientUnits="userSpaceOnUse">
<stop stop-color="#A55DFF"/>
<stop offset="1" stop-color="#F18EF7"/>
</linearGradient>
<linearGradient id="paint66_linear_18:104" x1="78392.2" y1="113858" x2="110519" y2="113858" gradientUnits="userSpaceOnUse">
<stop stop-color="#A55DFF"/>
<stop offset="1" stop-color="#F18EF7"/>
</linearGradient>
</defs>
</svg>
